<?xml version="1.0" standalone="no"?>
<!DOCTYPE svg PUBLIC "-//W3C//DTD SVG 1.1//EN" "http://www.w3.org/Graphics/SVG/1.1/DTD/svg11.dtd" >
<!--
2013-9-30: Created.
-->
<svg>
<metadata>
Created by iconfont
</metadata>
<defs>

<font id="iconfont" horiz-adv-x="1024" >
  <font-face
    font-family="iconfont"
    font-weight="500"
    font-stretch="normal"
    units-per-em="1024"
    ascent="896"
    descent="-128"
  />
    <missing-glyph />
    
    <glyph glyph-name="chevron-left" unicode="&#58948;" d="M636.786 514.274l-45.254 45.252-271.532-271.526 271.532-271.528 45.258 45.254-226.282 226.274z"  horiz-adv-x="1024" />

    
    <glyph glyph-name="shoujishuma" unicode="&#58906;" d="M312.88832-148.526336 711.764992-148.526336c70.914048 0 128.59392 57.679872 128.59392 128.595968L840.358912 619.23712c0 70.908928-57.679872 128.595968-128.59392 128.595968L312.88832 747.833088c-70.916096 0-128.595968-57.686016-128.595968-128.595968l0-639.167488C184.292352-90.846464 241.972224-148.526336 312.88832-148.526336zM312.88832 698.550016 711.764992 698.550016c43.73504 0 79.311872-35.577856 79.311872-79.31392l0-639.167488c0-43.7504-35.576832-79.31392-79.311872-79.31392L312.88832-99.245312c-43.748352 0-79.31392 35.56352-79.31392 79.31392L233.5744 619.23712C233.5744 662.97216 269.139968 698.550016 312.88832 698.550016zM398.3616 648.1856l227.929088 0 0-28.490752-227.929088 0 0 28.490752ZM740.25472 561.520384 284.396544 561.520384l0-498.193408 455.858176 0L740.25472 561.520384zM703.29344 100.28928 321.357824 100.28928 321.357824 524.559104l381.935616 0L703.29344 100.28928zM512.325632 21.48224c-23.100416 0-41.80992-18.719744-41.80992-41.822208 0-23.077888 18.709504-41.797632 41.80992-41.797632 23.076864 0 41.797632 18.719744 41.797632 41.797632C554.123264 2.761472 535.402496 21.48224 512.325632 21.48224z"  horiz-adv-x="1024" />

    
    <glyph glyph-name="iconfontbaobao" unicode="&#58889;" d="M1024-92.192q0-12.288-11.264-32.768t-34.304-39.424-56.832-33.28-77.824-14.336l-662.528 0q-45.056 0-78.848 14.336t-56.832 33.28-34.304 39.424-11.264 32.768l90.112 482.304q0 25.6 17.92 43.008t42.496 17.408q7.168-2.048 16.384-5.12 8.192-2.048 19.456-5.12l24.576-7.168 0 79.872q0 61.44 23.552 116.224t64.512 95.232 95.744 64 117.248 23.552 117.248-23.552 95.744-64 64.512-95.232 23.552-116.224l0-79.872 24.576 7.168q11.264 3.072 19.456 5.12 9.216 3.072 16.384 5.12 25.6 0 43.008-17.408t17.408-43.008zM240.64 239.584q25.6 0 43.008 17.408t17.408 43.008q0 17.408-8.192 30.72t-21.504 21.504l0-52.224-60.416 0 0 52.224q-29.696-16.384-29.696-52.224 0-25.6 17.408-43.008t41.984-17.408zM271.36 418.784q50.176-11.264 112.64-19.968t128-8.704 128 8.704 113.664 19.968l0 84.992q0 51.2-18.944 96.256t-51.712 78.848-76.8 53.248-94.208 19.456-93.696-19.456-76.288-53.248-51.712-78.848-18.944-96.256l0-84.992zM783.36 239.584q25.6 0 43.008 17.408t17.408 43.008q0 17.408-8.192 30.72t-22.528 21.504l0-52.224-59.392 0 0 52.224q-14.336-8.192-22.528-21.504t-8.192-30.72q0-25.6 17.92-43.008t42.496-17.408z"  horiz-adv-x="1024" />

    
    <glyph glyph-name="houdongfangiconfont28" unicode="&#58921;" d="M798.72 300c0-22.528-12.288-41.984-29.696-53.248l0 0-449.536-266.24c0 0 0 0 0 0l0 0 0 0C309.248-24.608 297.984-27.68 286.72-27.68c-33.792 0-61.44 27.648-61.44 61.44l0 0L225.28 566.24l0 0c0 33.792 27.648 61.44 61.44 61.44 11.264 0 22.528-3.072 31.744-8.192l0 0 0 0c0 0 0 0 0 0l449.536-266.24 0 0C786.432 341.984 798.72 322.528 798.72 300z"  horiz-adv-x="1024" />

    
    <glyph glyph-name="meizhuang" unicode="&#58915;" d="M695.911148 318.948561l-49.440016 0c1.062192 2.63706 1.907443 5.411243 1.907443 8.380878L648.378575 424.716466c0 13.909801-12.768815 25.183566-28.526707 25.183566l-24.730241 0L595.121628 676.544959c0 2.105964-0.294712 4.209882-0.905626 6.256494-11.842723 40.823777-32.619932 62.721507-61.717643 65.101717-57.212026 4.328585-109.231797-80.840166-128.708384-117.828592-1.730411-3.344165-2.65548-6.964622-2.65548-10.622942l0-104.07638c0-13.909801 12.767791-25.182542 28.525684-25.182542 15.759939 0 28.528754 11.273764 28.528754 25.182542l0 98.40931c21.936615 40.057321 53.335742 78.57866 68.112284 83.516112 2.143826-2.183735 6.884804-8.400321 11.763928-24.041556L538.065144 449.900032l-146.435117 0c-15.757892 0-28.52773-11.273764-28.52773-25.183566l0-97.386004c0-2.970658 0.847298-5.743818 1.909489-8.380878l-41.84606 0c-15.758915 0-28.52773-11.272741-28.52773-25.182542l0-416.34236c0-13.929244 12.768815-25.182542 28.52773-25.182542l372.744399 0c15.757892 0 28.52773 11.253298 28.52773 25.182542l0 416.34236C724.438878 307.67582 711.670064 318.948561 695.911148 318.948561zM420.159804 327.329439 420.159804 399.532901l171.165358 0 0-72.203462c0-2.970658 0.845251-5.743818 1.927909-8.380878L418.231895 318.948561C419.314553 321.585621 420.159804 324.359804 420.159804 327.329439zM667.384441-97.393799l-315.689962 0L351.694479 268.583476l315.689962 0L667.384441-97.393799z"  horiz-adv-x="1024" />

    
    <glyph glyph-name="pinglun" unicode="&#58891;" d="M107.789474 896C48.235789 896 0 845.875174 0 784.136972L0 224.746911C0 163.008706 48.235789 112.883879 107.789474 112.883879L242.458947 112.883879 242.256842-128 458.105263 112.883879 970.105263 112.883879C1029.658947 112.883879 1077.894737 163.008706 1077.894737 224.746911L1077.894737 784.136972C1077.894737 845.875174 1029.658947 896 970.105263 896L107.789474 896Z"  horiz-adv-x="1078" />

    
    <glyph glyph-name="bianji" unicode="&#58944;" d="M946.228729 669.209764 795.664571 819.783131c-16.223496 16.223496-42.61354 16.223496-58.833967 0L144.8142 227.741144l0.019443-0.025583c-2.574638-2.788509-4.494361-6.126534-5.590322-9.7869L65.112973-30.269142c-2.625804-8.800433-0.220011-18.334577 6.27696-24.825408 6.490831-6.496971 16.021905-8.901741 24.822338-6.27696l248.188592 74.130348c3.651157 1.092891 6.998391 3.015683 9.78997 5.593392l0.025583-0.022513 0.703011 0.706081 19.790742 19.794835L946.234869 610.372727C962.452225 626.596224 962.452225 652.992407 946.228729 669.209764L946.228729 669.209764zM218.322377 230.568539l460.860273 460.882785L817.902038 552.727843 357.041766 91.848127 218.322377 230.568539 218.322377 230.568539zM904.965953 639.791757l-51.723012-51.723012L714.52253 726.791204l51.723012 51.727105L904.965953 639.791757 904.965953 639.791757zM126.249379-0.234081l56.69628 189.836603L316.076772 56.466292 126.249379-0.234081 126.249379-0.234081zM126.249379-0.234081"  horiz-adv-x="1024" />

    
    <glyph glyph-name="20pxhuidaodingbu" unicode="&#59006;" d="M192 608 832 608 192 608ZM832 576 192 576c-19.2 0-32 12.8-32 32s12.8 32 32 32l640 0c19.2 0 32-12.8 32-32S851.2 576 832 576zM832 128c-9.6 0-16 3.2-22.4 9.6L512 435.2l-297.6-297.6c-12.8-12.8-32-12.8-44.8 0s-12.8 32 0 44.8L512 524.8l342.4-342.4c12.8-12.8 12.8-32 0-44.8C848 131.2 841.6 128 832 128z"  horiz-adv-x="1024" />

    
    <glyph glyph-name="iconzhenghe42" unicode="&#59195;" d="M513.536 831.488c-247.141376 0-447.488-200.346624-447.488-447.488 0-247.140352 200.346624-447.488 447.488-447.488 247.140352 0 447.488 200.347648 447.488 447.488C961.024 631.141376 760.676352 831.488 513.536 831.488zM586.827776 179.985408c0-6.037504-5.177344-11.214848-11.214848-11.214848L453.161984 168.77056c-6.037504 0-11.214848 5.177344-11.214848 11.214848L441.947136 299.855872c0 6.037504 5.177344 11.214848 11.214848 11.214848l122.450944 0c6.037504 0 11.214848-5.177344 11.214848-11.214848L586.827776 179.985408zM781.727744 168.787968l-70.71232 0c-10.354688 0-14.671872 3.457024-19.831808 12.935168L513.536 537.018368 335.888384 181.722112c-5.177344-10.354688-9.47712-12.935168-19.832832-12.935168l-70.711296 0c-12.935168 0-19.832832 7.757824-12.075008 22.412288L457.479168 632.73984c4.299776 7.757824 12.075008 12.935168 20.691968 12.935168l71.571456 0c8.61696 0 16.374784-5.177344 20.691968-12.935168l0.017408 0 223.34976-441.539584C801.559552 177.404928 794.662912 168.787968 781.727744 168.787968z"  horiz-adv-x="1024" />

    
    <glyph glyph-name="jiayongdianqi" unicode="&#58884;" d="M928 700.583467 96 700.583467c-17.672533 0-32-14.327467-32-32l0-573.866667c0-17.672533 14.327467-32 32-32l97.178667 0L193.178667 25.173333c0-17.672533 14.327467-32 32-32s32 14.327467 32 32l0 37.543467 510.366933 0L767.5456 25.173333c0-17.672533 14.327467-32 32-32s32 14.327467 32 32l0 37.543467L928 62.7168c17.672533 0 32 14.327467 32 32l0 573.866667C960 686.256 945.672533 700.583467 928 700.583467zM896 126.7168 128 126.7168l0 509.866667 768 0L896 126.7168zM224 190.7168l448 0c17.672533 0 32 14.327467 32 32l0 320c0 17.672533-14.327467 32-32 32L224 574.7168c-17.672533 0-32-14.327467-32-32l0-320C192 205.044267 206.327467 190.7168 224 190.7168zM256 510.7168l384 0 0-256L256 254.7168 256 510.7168zM798.1408 314.450133c17.672533 0 32 14.327467 32 32l0 198.4c0 17.672533-14.327467 32-32 32s-32-14.327467-32-32l0-198.4C766.1408 328.7776 780.4672 314.450133 798.1408 314.450133zM800.8896 221.826133m-31.821867 0a29.833 29.833 0 1 0 63.643733 0 29.833 29.833 0 1 0-63.643733 0Z"  horiz-adv-x="1024" />

    
    <glyph glyph-name="myorder" unicode="&#59003;" d="M703.569572 122.611781 320.428382 122.611781c-5.207605 0-9.429767 4.222161-9.429767 9.429767s4.221138 9.429767 9.429767 9.429767l383.14119 0c5.208629 0 9.43079-4.222161 9.43079-9.429767S708.7782 122.611781 703.569572 122.611781zM703.569572 258.487402 320.428382 258.487402c-5.207605 0-9.429767 4.223185-9.429767 9.429767 0 5.208629 4.221138 9.43079 9.429767 9.43079l383.14119 0c5.208629 0 9.43079-4.222161 9.43079-9.43079C713.000362 262.710586 708.7782 258.487402 703.569572 258.487402zM703.569572 394.363022 320.428382 394.363022c-5.207605 0-9.429767 4.221138-9.429767 9.429767s4.221138 9.429767 9.429767 9.429767l383.14119 0c5.208629 0 9.43079-4.221138 9.43079-9.429767S708.7782 394.363022 703.569572 394.363022zM717.882556 558.583201 326.563102 558.583201 326.563102 752.138498l89.062432 0c11.161201 0 29.494755 8.904811 47.223534 17.516956 21.565155 10.474562 43.862997 21.306258 62.237483 21.306258 16.295128 0 36.399001-10.773368 55.841819-21.190625 16.178471-8.66945 32.906457-17.632589 42.694381-17.632589l94.258781 0L717.881532 558.583201zM345.422635 577.442734 699.024046 577.442734 699.024046 733.278965l-75.400271 0c-14.520715 0-32.532951 9.650801-51.601238 19.868513-16.58063 8.885368-35.373649 18.954701-46.934962 18.954701-14.035668 0-34.350342-9.867742-53.996798-19.410072-20.552082-9.983375-39.965224-19.413142-55.465243-19.413142l-70.202898 0L345.422635 577.442734zM722.73712-13.264862 301.263903-13.264862c-68.579935 0-124.372635 56.476269-124.372635 125.896338L176.891268 539.666362c0 69.418023 55.792701 125.894292 124.372635 125.894292l30.107715 0c5.208629 0 9.429767-4.222161 9.429767-9.429767 0-5.207605-4.221138-9.429767-9.429767-9.429767l-30.107715 0c-58.180074 0-105.513102-48.015573-105.513102-107.034758l0-427.034886c0-59.021232 47.333028-107.037828 105.513102-107.037828l421.473217 0c58.179051 0 105.509009 48.016597 105.509009 107.037828L828.246129 539.666362c0 58.019415-50.475602 107.034758-110.224404 107.034758-5.207605 0-9.43079 4.222161-9.43079 9.429767 0 5.207605 4.223185 9.429767 9.43079 9.429767 69.970608 0 129.08496-57.652048 129.08496-125.894292l0-427.034886C847.106686 43.21243 791.315008-13.264862 722.73712-13.264862z"  horiz-adv-x="1024" />

    
    <glyph glyph-name="jinbi" unicode="&#58894;" d="M476.186 9.18c-24.824-2.457-51.071-4.008-78.998-4.008-196.267 0-321.552 67.232-321.552 113.519 0 0.776-0.388 1.422-0.388 2.198 0 0.776 0.388 1.422 0.388 2.198v70.465c76.929-49.131 201.568-74.861 321.552-74.861 25.212 0 50.554 1.422 75.636 3.62v75.636c-23.919-2.198-49.002-3.62-75.636-3.62-196.267 0-321.552 67.232-321.552 113.519v74.861c76.929-49.131 201.568-74.861 321.552-74.861 25.212 0 50.554 1.422 75.636 3.62v44.347c0 10.99 1.939 21.592 5.56 31.935-25.471-2.586-52.493-4.137-81.196-4.137-196.267 0-321.552 67.232-321.552 113.519v74.861c76.929-49.131 201.568-74.861 321.552-74.861 119.984 0 244.622 25.729 321.552 74.861v-57.406c18.36 1.681 37.236 2.715 56.76 2.715 6.465 0 12.671-0.259 18.877-0.517l0 169.374c0 122.828-204.671 189.156-397.188 189.156s-397.188-66.327-397.188-189.156v-567.467c0-122.828 204.671-189.156 397.188-189.156 43.055 0 86.626 3.491 128.517 10.085-25.729 20.040-42.925 43.701-49.519 69.56v0zM397.188 799.677c196.267 0 321.552-67.232 321.552-113.519 0-46.287-125.285-113.519-321.552-113.519s-321.552 67.232-321.552 113.519c0 46.287 125.285 113.519 321.552 113.519v0zM775.499 497.002c-161.745 0-283.669-65.034-283.669-151.273v-302.675c0-86.238 121.923-151.273 283.669-151.273s283.669 65.034 283.669 151.273v302.675c0 86.238-121.923 151.273-283.669 151.273v0zM983.531 43.055c0-30.125-83.006-75.636-208.032-75.636-125.026 0-208.032 45.511-208.032 75.636v46.545c51.071-28.962 124.121-46.545 208.032-46.545s156.962 17.713 208.032 46.545v-46.545zM983.531 194.457c0-30.125-83.006-75.636-208.032-75.636-125.026 0-208.032 45.511-208.032 75.636v46.545c51.071-28.962 124.121-46.545 208.032-46.545s156.962 17.713 208.032 46.545v-46.545zM775.499 270.093c-125.026 0-208.032 45.511-208.032 75.636 0 30.125 83.006 75.636 208.032 75.636 125.026 0 208.032-45.511 208.032-75.636-0-30.125-83.006-75.636-208.032-75.636v0zM775.499 270.093z"  horiz-adv-x="1060" />

    
    <glyph glyph-name="xiangyou" unicode="&#58922;" d="M412.240437 529.754618 598.577333 356.856803 412.240437 184.074621 412.240437 84.912158 413.775396 83.455993 701.134103 356.856803 413.775396 630.326175 412.240437 628.87615Z"  horiz-adv-x="1024" />

    
    <glyph glyph-name="shouyexuanzhong-copy" unicode="&#58880;" d="M993.609 353.973c-7.998-7.998-23.318-5.625-34.221 5.277l-425.516 425.516-432.246-431.121c-11.107-11.066-26.693-13.459-34.813-5.359-8.121 8.1-5.707 23.646 5.379 34.713l442.023 440.857c1.596 1.575 3.396 2.577 5.134 3.804 0.102 0.102 0.102 0.246 0.204 0.348 0.327 0.327 0.838 0.388 1.187 0.675 1.433 0.921 2.823 1.779 4.316 2.454 0.982 0.388 1.902 0.798 2.987 1.002 7.957 2.659 15.913 2.127 20.987-2.925 1.433-1.433 2.148-3.313 2.925-5.154 0.593-0.512 1.248-0.777 1.821-1.329l434.537-434.557c10.902-10.902 13.275-26.223 5.298-34.201zM900.909 56.727c0-67.787-54.941-122.727-122.727-122.727h-184.091v204.546h-122.727v-204.546h-184.091c-67.787 0-122.727 54.941-122.727 122.727v380.884h-0.818l0.818 0.818v6.934h6.996l368.346 364.398 348.321-364.398h12.702v-388.637zM696.363 793.091h204.546v-204.546l-204.546 204.546z"  horiz-adv-x="1066" />

    
    <glyph glyph-name="pinglun1" unicode="&#58930;" d="M150.53952 844.8C67.3984 844.8 0 777.33376 0 694.15296l0-421.86624C0 189.07648 67.3984 121.6384 150.53952 121.6384l331.18336 0 240.86144-210.9504L722.58432 121.6384l150.53952 0c83.14624 0 150.53952 67.43808 150.53952 150.64704L1023.66336 694.15296C1023.66336 777.33376 956.27008 844.8 873.12384 844.8L150.53952 844.8z"  horiz-adv-x="1024" />

    
    <glyph glyph-name="youhuiquan" unicode="&#59153;" d="M929.372829 493.256356 858.882382 563.715081l-11.231809-8.41567c-46.255487-34.739199-115.417683-29.867238-156.547429 11.263531-41.889039 41.889039-46.730301 109.184725-11.263531 156.547429l8.41567 11.231809-70.458725 70.490447c-18.287505 18.287505-50.368154 18.255783-68.940139-0.221034L72.79084 328.514291c-9.270131-9.270131-14.364149-21.609157-14.364149-34.707476 0-12.971429 5.030573-25.121144 14.142092-34.20094l70.490447-70.490447 11.231809 8.41567c46.255487 34.675754 115.417683 29.867238 156.547429-11.263531 41.889039-41.889039 46.730301-109.184725 11.231809-156.547429l-8.41567-11.231809 70.490447-70.458725c9.111518-9.143241 21.292955-14.142092 34.296107-14.142092 13.066597 0 25.3739 5.094018 34.612309 14.332427l476.096279 476.096279C948.229293 443.393715 948.32446 474.304725 929.372829 493.256356zM906.245086 447.222927l-144.204309-144.204309c-0.292666 0.345877-0.405229 0.776689-0.731664 1.103124l-45.812395 45.812395c-6.328126 6.328126-16.578584 6.328126-22.906709 0s-6.328126-16.578584 0-22.906709l45.812395-45.812395c0.326435-0.326435 0.757247-0.438998 1.103124-0.731664L430.147784-28.874375c-6.201236-6.232958-16.989953-6.296403-23.096021-0.189312l-51.095725 51.065026c36.19434 59.164494 27.65178 137.311319-22.209838 187.17396-28.79072 28.758997-67.041906 44.61001-107.697861 44.61001-28.442796 0-55.652508-7.688099-79.476099-22.36845L95.475492 282.512584c-3.00545 3.00545-4.650927 6.992251-4.650927 11.326976 0 4.429893 1.739621 8.637728 4.871961 11.769045l476.064556 476.096279c6.201236 6.201236 17.053398 6.296403 23.127743 0.221034l51.065026-51.096748c-36.130895-59.164494-27.588335-137.343041 22.24156-187.17396 28.758997-28.758997 67.010183-44.61001 107.697861-44.61001 28.442796 0 55.652508 7.688099 79.476099 22.36845l51.095725-51.065026C912.794246 464.022545 912.667356 453.645197 906.245086 447.222927zM532.214391 533.216463c-6.328126 6.328126-16.578584 6.328126-22.906709 0s-6.328126-16.578584 0-22.906709l45.812395-45.812395c3.164063-3.164063 7.308453-4.746094 11.452843-4.746094 4.14439 0 8.289804 1.582031 11.452843 4.746094 6.328126 6.328126 6.328126 16.578584 0 22.906709L532.214391 533.216463zM463.495286 556.122149c3.164063-3.164063 7.308453-4.746094 11.452843-4.746094 4.14439 0 8.289804 1.582031 11.452843 4.746094 6.328126 6.328126 6.328126 16.578584 0 22.906709l-45.812395 45.812395c-6.328126 6.328126-16.578584 6.328126-22.906709 0s-6.328126-16.578584 0-22.906709L463.495286 556.122149zM623.870904 441.558927c-6.328126 6.328126-16.578584 6.328126-22.906709 0-6.328126-6.328126-6.328126-16.578584 0-22.906709l45.812395-45.812395c3.164063-3.164063 7.308453-4.746094 11.452843-4.746094s8.289804 1.582031 11.452843 4.746094c6.328126 6.328126 6.328126 16.578584 0 22.906709L623.870904 441.558927zM528.45681 403.909445 467.331661 383.182378 415.604556 421.783535 416.429341 357.246683 363.733165 319.977871 425.366897 300.819532 444.526259 239.184777 481.792001 291.882999 546.328853 291.058215 507.727697 342.78532Z"  horiz-adv-x="1024" />

    
    <glyph glyph-name="shouye" unicode="&#58931;" d="M11.211679 376.525547 553.109489 869.839416 1095.007299 376.525547ZM1106.218978 413.89781 1106.218978 413.89781zM160.70073 376.525547l0-485.839416 298.978102 0 0 298.978102 186.861314 0 0-298.978102 298.978102 0 0 485.839416M938.043796 402.686131 938.043796 402.686131zM982.890511 638.131387l0 224.233577-224.233577 0"  horiz-adv-x="1110" />

    
    <glyph glyph-name="meizhuang1" unicode="&#59254;" d="M672-96 327.36-96c-17.664 0-32 14.304-32 32l0 310.112c0 17.696 14.336 32 32 32L672 278.112c17.664 0 32-14.304 32-32L704-64C704-81.696 689.664-96 672-96zM359.36-32 640-32l0 246.112-280.64 0L359.36-32zM637.504 214.112c-17.664 0-32 14.304-32 32l0 140.32-211.68 0 0-140.32c0-17.696-14.336-32-32-32s-32 14.304-32 32l0 172.32c0 17.696 14.336 32 32 32l275.68 0c17.664 0 32-14.304 32-32l0-172.32C669.504 228.448 655.168 214.112 637.504 214.112zM603.072 386.432c-17.664 0-32 14.304-32 32L571.072 796c-83.072-21.056-131.936-119.04-142.752-142.944l0-140c0-17.696-14.336-32-32-32s-32 14.304-32 32L364.32 659.68c0 4.064 0.768 8.096 2.272 11.872C369.728 679.424 445.344 864 603.072 864c17.664 0 32-14.304 32-32l0-413.568C635.072 400.736 620.736 386.432 603.072 386.432z"  horiz-adv-x="1024" />

    
    <glyph glyph-name="muying" unicode="&#59262;" d="M612.293729 135.175935l-29.694299 25.108864c5.957689 7.045463 8.978489 14.527878 8.978489 22.24156 0 26.625404-36.083823 49.118698-78.794577 49.118698s-78.794577-22.493294-78.794577-49.118698c0-7.286963 2.707668-14.389732 8.049327-21.110807l-30.443359-24.191982c-10.788717 13.576203-16.491603 29.240975-16.491603 45.302789 0 24.492834 13.517875 47.973618 37.08871 64.424288 21.788236 15.205307 50.409087 23.580045 80.591503 23.580045 30.182416 0 58.804291-8.374738 80.591503-23.580045 23.570835-16.45067 37.08871-39.931454 37.08871-64.424288C630.463554 165.608038 624.180454 149.234115 612.293729 135.175935zM426.883949 122.053056c-5.814426 4.617158-10.958586 9.721409-15.289218 15.170514l30.444383 24.191982c2.489704-3.134387 5.526877-6.130627 9.025561-8.908904L426.883949 122.053056zM511.419274-62.043822c-73.916477 0-134.053112 60.136635-134.053112 134.053112s60.136635 134.053112 134.053112 134.053112 134.053112-60.136635 134.053112-134.053112S585.336774-62.043822 511.419274-62.043822zM511.419274 167.176766c-52.475142 0-95.167476-42.692335-95.167476-95.167476s42.692335-95.167476 95.167476-95.167476 95.167476 42.692335 95.167476 95.167476S563.895439 167.176766 511.419274 167.176766zM511.999488 64.824657l-0.541329 0.004093-0.617054-0.004093c-0.24764 0-0.494257 0.005117-0.740874 0.014326-76.249615 0.372483-149.775188 23.108301-212.659401 65.768913-58.291614 39.545668-104.22169 93.824899-133.396149 157.484777-27.037796 3.815909-51.948139 16.493649-71.145363 36.420491-22.167882 23.00904-34.374902 53.28253-34.374902 85.241406 0 51.065026 31.763424 96.568383 78.612429 114.657366 17.000186 83.08223 61.676711 158.790516 126.668934 214.234269 33.738405 28.780487 71.790046 51.27992 113.099894 66.872037 42.522466 16.049534 87.313601 24.302499 133.135206 24.532743 0.457418 0.01842 0.919952 0.019443 1.38044 0.010233 0.548492 0.008186 0.936325 0.00614 1.379417-0.010233 45.822628-0.230244 90.613764-8.483208 133.13623-24.532743 41.309848-15.592117 79.362512-38.09155 113.099894-66.872037 64.993247-55.443753 109.669772-131.152039 126.668934-214.234269 46.849004-18.090007 78.611405-63.59234 78.611405-114.657366 0-31.958876-12.208043-62.231343-34.374902-85.241406-19.198248-19.926842-44.107567-32.603559-71.145363-36.420491-29.17446-63.659879-75.103512-117.939109-133.395126-157.484777-62.888306-42.662659-136.406716-65.398476-212.661448-65.768913C512.493745 64.829773 512.247128 64.824657 511.999488 64.824657zM511.350712 791.173536c-0.149403-0.004093-0.298805-0.00614-0.448208-0.00614C343.627756 790.643464 201.636858 670.818401 173.278997 506.249275c-1.282203-7.441483-6.757914-13.467733-14.042831-15.456017-36.402071-9.93221-61.826114-43.256176-61.826114-81.039711 0-45.26288 35.400255-82.127486 80.591503-83.925435 7.531534-0.299829 14.211676-4.925173 17.141402-11.871375 53.691853-127.281895 177.6347-209.803353 315.759547-210.236212 0.149403-0.001023 0.299829-0.00307 0.448208-0.007163l0.069585 0.001023 0.070608-0.001023c0.149403 0.004093 0.297782 0.00614 0.447185 0.007163 138.125871 0.432859 262.069741 82.954317 315.759547 210.236212 2.928702 6.945179 9.609869 11.571546 17.141402 11.871375 45.191248 1.797949 80.591503 38.661531 80.591503 83.925435 0 37.783535-25.424042 71.108524-61.826114 81.039711-7.284917 1.987261-12.760628 8.014534-14.042831 15.456017C821.204759 670.818401 679.212838 790.643464 511.93809 791.167397c-0.149403 0-0.299829 0.002047-0.448208 0.00614C511.443833 791.173536 511.396761 791.173536 511.350712 791.173536zM520.518512 595.70568c-53.060473-0.004093-100.127442 35.786041-102.334713 37.488823-0.824785 0.636496-1.596358 1.337461-2.308579 2.096754-26.994818 28.794813-37.086663 58.543348-29.993105 88.419795 6.842849 28.816303 29.479405 55.426357 67.281359 79.092359 26.521027 16.603143 51.109028 25.696242 52.142567 26.074865 10.079566 3.695159 21.251-1.480724 24.947182-11.562337 3.694135-10.077519-1.475608-21.24179-11.549034-24.943089-23.356964-8.616238-85.939301-39.365566-94.997608-77.686337-3.837398-16.231683 2.499937-33.103956 19.368116-51.537793 7.484462-5.373381 50.463322-34.599006 90.065272-27.466562 19.283182 3.474125 34.905998 15.09786 47.76384 35.538401 0.116657 0.185218 0.065492 0.115634 0.115634 0.188288 0.530073 0.903579 4.320399 7.665587 4.712325 16.408715 0.522909 11.614525-5.125741 21.897729-17.266245 31.43699-13.633508 10.711969-27.202549 14.364149-39.23356 10.56359-10.359952-3.27151-19.086707-12.124132-22.233374-22.553669-3.102664-10.280134-13.951757-16.099676-24.229844-12.999059-10.280134 3.101641-16.099676 13.94971-12.999059 24.229844 6.854105 22.718421 25.15082 41.264822 47.750537 48.402383 24.493857 7.736195 51.116191 1.674129 74.968435-17.067724 28.987195-22.775726 33.360805-48.657186 31.925107-66.35936-1.447978-17.85874-9.190313-30.749328-10.636245-33.017998-18.781762-29.827329-43.668569-47.688115-73.963549-53.078893C533.344632 596.221426 526.8845 595.70568 520.518512 595.70568zM318.013379 482.784864a30.749 34.535 0 1 0 62.931285 0 30.749 34.535 0 1 0-62.931285 0ZM648.012232 482.784864a30.749 34.535 0 1 0 62.931285 0 30.749 34.535 0 1 0-62.931285 0Z"  horiz-adv-x="1024" />

    
    <glyph glyph-name="pinglun2" unicode="&#58892;" d="M301.176471 414.117647l361.411765 0 0-60.235294L301.176471 353.882353 301.176471 414.117647zM301.176471 534.588235l421.647059 0 0-60.235294L301.176471 474.352941 301.176471 534.588235zM413.063529 31.683765l-43.098353 42.044235C496.429176 203.294118 527.721412 203.294118 538.021647 203.294118L783.058824 203.294118c49.814588 0 90.352941 40.538353 90.352941 90.352941L873.411765 594.823529c0 49.814588-40.538353 90.352941-90.352941 90.352941L240.941176 685.176471c-49.814588 0-90.352941-40.538353-90.352941-90.352941l0-301.176471c0-49.814588 40.538353-90.352941 90.352941-90.352941l96.617412 0 0-60.235294L240.941176 143.058824c-83.034353 0-150.588235 67.553882-150.588235 150.588235L90.352941 594.823529c0 83.034353 67.553882 150.588235 150.588235 150.588235l542.117647 0c83.034353 0 150.588235-67.553882 150.588235-150.588235l0-301.176471c0-83.034353-67.553882-150.588235-150.588235-150.588235l-242.386824 0C521.878588 135.378824 460.348235 80.082824 413.063529 31.683765z"  horiz-adv-x="1024" />

    
    <glyph glyph-name="dingdan" unicode="&#58881;" d="M794.76 831.742h-215.486c3.18-11.647 3.775-24.319 0-35.777h215.486c29.598 0 53.683-24.087 53.683-53.66v-751.325c0-29.618-24.085-53.668-53.683-53.668l-572.59 0c-29.6 0-53.68 24.049-53.68 53.668l0 751.325c0 29.573 24.080 53.66 53.68 53.66h212.803c-3.765 11.457-2.885 24.13 0.287 35.777h-213.090c-49.33 0-89.47-40.123-89.47-89.436v-751.33c0-49.323 40.138-89.454 89.47-89.454h572.59c49.323 0 89.47 40.131 89.47 89.454l0 751.33c0 49.312-40.146 89.436-89.47 89.436zM505.671 778.245c-49.187 0-70.411-6.179-70.411 35.474 0 39.468 32.448 71.841 71.916 71.841 39.476 0 71.574-32.103 71.574-71.571 0-39.437-22.623-35.744-73.078-35.744zM507.176 849.648c-19.735 0-35.784-16.036-35.784-35.797 0-19.705 16.048-35.741 35.784-35.741 19.725 0 35.792 16.036 35.792 35.741 0 19.758-16.067 35.797-35.792 35.797zM651.607 742.351h-286.296c-9.878 0-17.888 8.008-17.888 17.878 0 9.888 8.010 17.906 17.888 17.906h286.297c9.893 0 17.896-8.018 17.896-17.906-0.001-9.871-8.004-17.878-17.897-17.878zM651.607 688.685h-286.296c-9.878 0-17.888 8.003-17.888 17.873 0 9.888 8.010 17.891 17.888 17.891h286.297c9.893 0 17.896-8.003 17.896-17.891-0.001-9.87-8.004-17.873-17.897-17.873zM383.218 527.653c-9.883 0-17.893 8.003-17.893 17.888 0 9.885 8.008 17.873 17.893 17.873l387.69 0.081c9.868 0 17.891-8.005 17.891-17.888 0-9.873-8.003-17.878-17.891-17.878l-387.69-0.076zM279.362 509.792h-7.027c-17.792 0-32.271 14.464-32.271 32.264v7.020c0 17.785 14.479 32.261 32.271 32.261h7.027c17.792 0 32.276-14.476 32.276-32.261v-7.020c-0.002-17.8-14.483-32.264-32.276-32.264zM279.362 366.682h-7.027c-17.792 0-32.271 14.474-32.271 32.269v7.012c0 17.78 14.479 32.271 32.271 32.271h7.027c17.792 0 32.276-14.491 32.276-32.271v-7.012c-0.002-17.795-14.483-32.269-32.276-32.269zM279.362 223.551h-7.027c-17.792 0-32.271 14.484-32.271 32.259v7.040c0 17.775 14.479 32.289 32.271 32.289h7.027c17.792 0 32.276-14.514 32.276-32.289v-7.040c-0.002-17.775-14.483-32.259-32.276-32.259zM279.362 80.454h-7.027c-17.792 0-32.271 14.474-32.271 32.259v7.020c0 17.78 14.479 32.279 32.271 32.279h7.027c17.792 0 32.276-14.499 32.276-32.279v-7.020c-0.002-17.785-14.483-32.259-32.276-32.259zM383.218 384.523c-9.883 0-17.893 8.023-17.893 17.906 0 9.868 8.008 17.871 17.893 17.871l387.69 0.076c9.868 0 17.891-7.988 17.891-17.873 0-9.898-8.003-17.903-17.891-17.903l-387.69-0.077zM383.21 241.412c-9.883 0-17.896 8.018-17.896 17.891s8.015 17.901 17.896 17.901l387.697 0.076c9.868 0 17.891-8.038 17.891-17.896 0-9.873-8.003-17.891-17.891-17.891l-387.697-0.081zM383.21 98.31c-9.883 0-17.896 7.993-17.896 17.891 0 9.873 8.015 17.871 17.896 17.871l387.697 0.076c9.868 0 17.891-8.003 17.891-17.886 0-9.853-8.003-17.871-17.891-17.871l-387.697-0.081z"  horiz-adv-x="1024" />

    
    <glyph glyph-name="shipinfushi" unicode="&#58970;" d="M502.4 688c-8.96 0-16-7.040-16-16v-139.52c0-30.72-21.12-56.32-49.92-63.36l0 202.88c0 8.96-7.040 16-16 16s-16-7.040-16-16v-202.88c-28.16 7.040-49.92 32.64-49.92 63.36v139.52c0 8.96-7.040 16-16 16s-16-7.040-16-16v-139.52c0-48.64 35.2-88.32 81.92-96v-320.64c0-8.96 7.040-16 16-16s16 7.040 16 16v320.64c46.080 7.68 81.92 48 81.92 96v139.52c0 8.96-7.040 16-16 16zM694.4 660.48c-18.56 17.92-42.88 28.16-69.12 27.52-1.28 0-1.92 0-2.56-0.64-1.28 0.64-2.56 0.64-4.48 0.64-8.96 0-16-7.040-16-16v-561.28c0-8.96 7.040-16 16-16s16 7.040 16 16v276.48h41.6c26.24 0 47.36 21.12 47.36 47.36v156.8c0 26.24-10.24 50.56-28.8 69.12zM691.2 434.56c0-8.32-7.040-15.36-15.36-15.36h-41.6v235.52c14.080-1.28 27.52-7.68 37.76-17.92 12.16-12.16 19.2-28.16 19.2-45.44v-156.8z"  horiz-adv-x="1024" />

    
    <glyph glyph-name="qrcode" unicode="&#58893;" d="M1008.921-128h-30.116c-8.312 0-15.058 6.746-15.058 15.058v391.514c0 8.312 6.746 15.058 15.058 15.058h30.116c8.312 0 15.058-6.746 15.058-15.058v-391.514c0-8.312-6.746-15.058-15.058-15.058zM1008.921 353.893h-993.843c-8.312 0-15.058 6.716-15.058 15.028v30.147c0 8.312 6.746 15.058 15.058 15.058h993.843c8.312 0 15.058-6.746 15.058-15.058v-30.147c0-8.312-6.746-15.028-15.058-15.028zM963.747 474.359h-301.164c-33.279 0-60.233 26.954-60.233 60.233v301.164c0 33.249 26.954 60.233 60.233 60.233h301.164c33.249 0 60.233-26.984 60.233-60.233v-301.164c0-33.279-26.984-60.233-60.233-60.233zM963.747 835.756h-301.164v-301.164h301.164v301.164zM527.058 474.359h-30.116c-8.312 0-15.058 6.746-15.058 15.058v391.514c0 8.312 6.746 15.058 15.058 15.058h30.116c8.312 0 15.058-6.746 15.058-15.058v-391.514c0-8.312-6.746-15.058-15.058-15.058zM361.418 474.359h-301.164c-33.279 0-60.233 26.954-60.233 60.233v301.164c0 33.249 26.954 60.233 60.233 60.233h301.164c33.249 0 60.233-26.984 60.233-60.233v-301.164c0-33.279-26.984-60.233-60.233-60.233zM361.418 835.756h-301.164v-301.164h301.164v301.164zM60.253 293.63h301.164c33.249 0 60.233-26.954 60.233-60.233v-301.164c0-33.249-26.984-60.233-60.233-60.233h-301.164c-33.279 0-60.233 26.984-60.233 60.233v301.164c0 33.279 26.954 60.233 60.233 60.233zM60.253-67.737h301.164v301.164h-301.164v-301.164zM496.942 293.63h30.116c8.312 0 15.058-6.746 15.058-15.058v-301.134c0-8.342-6.746-15.058-15.058-15.058h-30.116c-8.312 0-15.058 6.716-15.058 15.058v301.134c0 8.312 6.746 15.058 15.058 15.058zM677.64 173.164h30.116c8.312 0 15.058-6.746 15.058-15.058v-271.048c0-8.312-6.746-15.058-15.058-15.058h-30.116c-8.312 0-15.058 6.746-15.058 15.058v271.048c0 8.312 6.746 15.058 15.058 15.058zM828.223 233.427h30.116c8.312 0 15.058-6.746 15.058-15.058v-331.311c0-8.312-6.746-15.058-15.058-15.058h-30.116c-8.312 0-15.058 6.746-15.058 15.058v331.311c0 8.312 6.746 15.058 15.058 15.058z"  horiz-adv-x="1024" />

    
    <glyph glyph-name="xiangyou-copy" unicode="&#58882;" d="M285.578 684.792q-14.279 14.279-21.418 32.637t-7.139 37.227 7.139 36.717 21.418 32.127q28.558 29.578 68.335 29.578t68.335-29.578l378.39-381.45q14.279-12.239 20.398-30.598t5.1-38.757-9.179-40.287-22.438-34.167l-372.271-375.331q-28.558-29.578-68.335-29.578t-68.335 29.578q-14.279 14.279-21.418 32.127t-7.139 36.717 7.139 37.227 21.418 32.637l308.016 311.076z"  horiz-adv-x="1024" />

    
    <glyph glyph-name="jingdong" unicode="&#58895;" d="M650.512077 641.236715h-118.724637v-512h118.724637c118.724638 0 217.661836 113.777778 217.661836 254.763285-2.47343 140.985507-98.937198 257.236715-217.661836 257.236715zM17.31401 878.68599v-989.37198h989.37198v989.37198h-989.37198z m336.386473-593.623188c0-131.091787-106.357488-234.975845-234.975845-234.975845h-39.57488v79.149758h39.57488c86.570048 0 158.299517 69.256039 158.299517 158.299517v432.850241h79.149758V285.062802z m296.811594-234.975845h-197.874396V720.386473h197.874396c163.246377 0 294.338164-150.879227 294.338165-333.913043s-131.091787-336.386473-294.338165-336.386473z"  horiz-adv-x="1024" />

    
    <glyph glyph-name="jiayongdianqi1" unicode="&#58926;" d="M839.68-107.52c0-10.24 10.24-20.48 20.48-20.48s20.48 10.24 20.48 20.48v61.44h-40.96v-61.44zM163.84-107.52c0-10.24 10.24-20.48 20.48-20.48s20.48 10.24 20.48 20.48v61.44H163.84v-61.44zM0 650.24v-696.32h1024V650.24H0z m983.04-655.36H40.96V609.28h942.08v-614.4zM161.792 35.84H696.32c45.056 0 81.92 36.864 81.92 81.92V490.496c0 45.056-36.864 81.92-81.92 81.92H161.792c-45.056 0-81.92-36.864-81.92-81.92V117.76c0-45.056 36.864-81.92 81.92-81.92z m-40.96 454.656c0 22.528 18.432 40.96 40.96 40.96H696.32c22.528 0 40.96-18.432 40.96-40.96V117.76c0-22.528-18.432-40.96-40.96-40.96H161.792c-22.528 0-40.96 18.432-40.96 40.96V490.496zM921.6 158.72c12.288 0 20.48 8.192 20.48 20.48V547.84c0 10.24-8.192 20.48-20.48 20.48-10.24 0-20.48-8.192-20.48-20.48v-368.64c0-12.288 10.24-20.48 20.48-20.48zM921.6 97.28m-20.48 0a20.48 20.48 0 1 1 40.96 0 20.48 20.48 0 1 1-40.96 0Z"  horiz-adv-x="1024" />

    
    <glyph glyph-name="supplierorder" unicode="&#58927;" d="M41.472-85.646v887.515c0 0.299 0.017 0.575 0.044 0.829h887.382c0.026-0.254 0.043-0.531 0.043-0.829v-305.542c5.908-1.364 11.715-2.995 17.39-4.921 8.313-2.821 16.352-6.235 24.082-10.174l0 320.637c0 23.72-16.299 42.301-37.108 42.301l-144.518 0v51.829h-607.161v-51.829h-144.514c-20.81 0-37.111-18.581-37.111-42.301v-887.515c0-23.721 16.302-42.302 37.111-42.302h538.363c0.181 12.54 1.013 29.211 2.796 41.472l-536.755-0c-0.027 0.254-0.044 0.532-0.044 0.83zM125.194 604.101h720.021v-41.472h-720.021v41.472zM129.811 384.112h538.614v-41.472h-538.614v41.472zM120.291 134.813h448.59v-41.472h-448.59v41.472zM1173.795-123.677c-0.81 57.026-18.449 111.911-50.938 158.634-31.542 45.386-75.005 80.368-125.871 101.436-1.605 0.665-3.216 1.317-4.835 1.954 1.634 1.14 3.243 2.31 4.835 3.499 46.144 34.49 73.505 88.767 73.505 146.381 0 59.845-28.915 113.060-73.505 146.411-6.319 4.728-12.957 9.049-19.869 12.939-2.206 1.242-4.444 2.433-6.705 3.586-7.729 3.94-15.77 7.354-24.082 10.174-5.675 1.925-11.481 3.555-17.39 4.921-0.827 0.191-1.65 0.394-2.481 0.573-12.482 2.703-25.432 4.136-38.712 4.136-42.524 0-81.699-14.598-112.78-39.047-16.883-13.281-31.367-29.477-42.713-47.811-0.166-0.269-0.338-0.532-0.502-0.8-7.725-12.63-13.942-26.275-18.443-40.67-5.376-17.196-8.294-35.468-8.294-54.412 0-3.963 0.139-7.908 0.395-11.836 1.098-16.824 4.529-33.256 10.064-48.885 12.567-35.498 35.992-66.825 67.713-89.020-2.987-1.172-5.939-2.407-8.875-3.673-15.202-6.552-29.727-14.338-43.44-23.294-8.59-5.611-16.858-11.684-24.787-18.178-11.434-9.366-22.156-19.62-32.068-30.709-7.767-8.685-15.047-17.87-21.78-27.54-23.624-33.929-39.392-72.163-46.582-112.433-0.542-3.033-1.020-6.079-1.465-9.134-1.784-12.261-2.796-24.689-2.978-37.228l-0.077-4.244-0.001-0.039 51.262-0.012 0.001 0.052 0.075 4.108c0.201 12.705 1.455 25.182 3.64 37.364 0.548 3.062 1.143 6.11 1.809 9.134 12.577 56.96 46.074 106.622 92.308 139.974 12.116 8.738 25.101 16.358 38.816 22.694 6.407 2.959 12.977 5.631 19.684 8.014 11.75 4.175 23.937 7.447 36.486 9.714 4.747 0.857 9.545 1.577 14.392 2.142 0.126 0 13.255 1.192 29.258 1.192 11.105 0 21.012-0.546 29.45-1.628l2.272-0.312c2.802-0.4 5.583-0.87 8.352-1.371 5.874-1.062 11.678-2.33 17.39-3.827 8.218-2.157 16.247-4.774 24.082-7.787 9.144-3.516 18.022-7.573 26.574-12.165 73.321-39.36 123.383-116.666 124.775-203.14l0.067-4.16 52.045 0.022-0.080 4.301zM970.412 179.102c-7.469-5.671-15.53-10.601-24.082-14.663-5.599-2.659-11.407-4.948-17.39-6.839-12.986-4.104-26.801-6.322-41.124-6.322-53.706 0-100.291 31.098-122.707 76.226-7.43 14.961-12.202 31.461-13.698 48.885-0.334 3.894-0.514 7.829-0.514 11.808 0 19.336 4.040 37.746 11.308 54.441 6.759 15.525 16.312 29.561 28.027 41.472 24.855 25.272 59.418 40.973 97.583 40.973 13.416 0 26.381-1.952 38.642-5.57 0.834-0.246 1.654-0.524 2.481-0.785 5.979-1.887 11.795-4.145 17.39-6.802 8.553-4.061 16.613-8.991 24.082-14.662 2.29-1.739 4.53-3.542 6.705-5.418 7.341-6.333 14.008-13.43 19.869-21.166 17.388-22.958 27.719-51.534 27.719-82.482 0-30.954-10.332-59.541-27.719-82.5-7.599-10.034-16.55-18.985-26.573-26.595z"  horiz-adv-x="1174" />

    
    <glyph glyph-name="jichutubiao_jiangli-copy" unicode="&#58640;" d="M787.2 345.6c25.6 51.2 44.8 102.4 44.8 166.4 0 179.2-140.8 320-320 320s-320-140.8-320-320c0-64 19.2-115.2 44.8-166.4l-153.6-179.2 179.2 12.8 19.2-179.2 166.4 198.4c25.6-6.4 44.8-6.4 64-6.4s38.4 0 64 6.4l166.4-198.4 12.8 179.2 179.2-12.8-147.2 179.2zM652.8 339.2l-128 57.6-121.6-76.8 12.8 140.8-102.4 89.6 134.4 32 51.2 128 70.4-121.6 140.8-12.8-89.6-102.4 32-134.4z"  horiz-adv-x="1024" />

    
    <glyph glyph-name="qingjie" unicode="&#58888;" d="M748.1 256.4c-11 0-20-9-20-20v-140c0-23.7-9.3-46.1-26.3-63.1-16.9-16.9-39.3-26.3-63.1-26.3H384.1c-23.4 0-45.5 9.2-62.2 25.9-16.7 16.7-25.9 38.8-25.9 62.2V287.8c0 28.9 5.7 56.9 16.9 83.4 10.9 25.6 26.4 48.6 46.3 68.5s42.9 35.4 68.5 46.3c26.5 11.2 54.5 16.9 83.4 16.9h0.7c29 0 57.3-5.7 83.9-17 25.7-10.9 48.9-26.6 68.8-46.5s35.6-43.1 46.5-68.8c6.3-14.9 10.9-30.3 13.7-46.1 1.7-9.5 10-16.3 19.6-16.3 12.4 0 21.9 11.2 19.7 23.4C742.6 451.3 637.3 543 511.7 543h-0.7c-140.2-0.1-255-114.9-255-255.2v-192.6c0-70.5 57.6-128.1 128.1-128.1h254.7c71.1 0 129.3 58.2 129.3 129.3v140c0 11.1-8.9 20-20 20zM655.9 502.1H364.1v99.4c0 35.6 28.9 64.5 64.5 64.5h162.8c35.6 0 64.5-28.9 64.5-64.5v-99.4z m-251.8 40H616v59.4c0 13.5-11 24.5-24.5 24.5H428.6c-13.5 0-24.5-11-24.5-24.5v-59.4zM480.5 760.9h62.9v-114.8h-62.9zM321.1 732.4c-1.1 1.8-0.7 4.1 1 5.4l80.5 60.6h217.6c11 0 20-9 20-20s-9-20-20-20H407.6l-81.8-27.7c-1.8-0.5-3.7 0.2-4.7 1.7zM242.7 690.7l35.4 15.4-15.4-35.4 15.4-35.4-35.4 15.4-35.3-15.4 15.3 35.4-15.3 35.4zM164.3 584.9l49.6 21.5-21.5-49.6 21.5-49.6-49.6 21.5-49.7-21.5 21.6 49.6-21.6 49.6zM383.6 330.6h192M383.6 350.6h192v-40h-192zM384.1 256.7h220.3M384.1 276.7h220.3v-40H384.1zM383.6 182.4h252.8M383.6 202.4h252.8v-40H383.6z"  horiz-adv-x="1024" />

    
    <glyph glyph-name="paihangbang" unicode="&#983180;" d="M608 608c-17.6 0-32-14.4-32-32v-96c0-17.6 14.4-32 32-32s32 14.4 32 32v96c0 17.6-14.4 32-32 32zM608 416c-17.6 0-32-14.4-32-32s14.4-32 32-32 32 14.4 32 32-14.4 32-32 32zM896 672H768c0 52.906667-43.093333 96-96 96H352c-52.906667 0-96-43.093333-96-96H128c-17.706667 0-32-14.293333-32-32v-96c0-97.6 73.173333-178.453333 167.68-190.506667 11.093333-44.48 34.133333-85.333333 67.306667-118.506666 40.746667-40.746667 92.8-66.026667 149.013333-72.96V64h-64c-17.6 0-32-14.4-32-32s14.4-32 32-32h192c17.6 0 32 14.4 32 32s-14.4 32-32 32h-64v97.92c56.213333 6.933333 108.266667 32.32 149.013333 72.96 33.28 33.28 56.213333 74.026667 67.306667 118.506667C854.826667 365.546667 928 446.4 928 544v96c0 17.706667-14.293333 32-32 32zM160 544v64h96v-187.946667c-21.866667 5.653333-41.92 17.066667-58.346667 33.6C173.333333 477.866667 160 509.973333 160 544z m352-320c-105.92 0-192 86.08-192 192V672c0 17.6 14.4 32 32 32h320c17.6 0 32-14.4 32-32v-256c0-105.92-86.08-192-192-192z m352 320c0-34.026667-13.333333-66.133333-37.653333-90.346667-16.426667-16.426667-36.586667-27.946667-58.346667-33.6V608h96v-64z"  horiz-adv-x="1024" />

    
    <glyph glyph-name="shenghuopai" unicode="&#983181;" d="M252.48 617.386667c0.106667-0.106667 0.213333-0.213333 0.32-0.426667 6.08-6.08 9.386667-14.08 9.386667-22.613333s-3.306667-16.533333-9.386667-22.613334c-12.48-12.48-12.48-32.746667 0-45.226666 6.293333-6.293333 14.4-9.386667 22.613333-9.386667 8.213333 0 16.426667 3.093333 22.613334 9.386667 18.133333 18.133333 28.16 42.24 28.16 67.84s-10.026667 49.706667-28.16 67.84c-0.106667 0.106667-0.213333 0.213333-0.426667 0.32-0.106667 0.106667-0.213333 0.213333-0.32 0.426666-6.08 6.08-9.386667 14.08-9.386667 22.613334s3.306667 16.533333 9.386667 22.613333c12.48 12.48 12.48 32.746667 0 45.226667s-32.746667 12.48-45.226667 0c-18.133333-18.133333-28.16-42.24-28.16-67.84s10.026667-49.706667 28.16-67.84c0.213333-0.106667 0.32-0.213333 0.426667-0.32zM425.386667 617.386667c0.106667-0.106667 0.213333-0.213333 0.32-0.426667 6.08-6.08 9.386667-14.08 9.386666-22.613333s-3.306667-16.533333-9.386666-22.613334c-12.48-12.48-12.48-32.746667 0-45.226666 6.293333-6.293333 14.4-9.386667 22.613333-9.386667 8.213333 0 16.426667 3.093333 22.613333 9.386667 18.133333 18.133333 28.16 42.24 28.16 67.84s-10.026667 49.706667-28.16 67.84c-0.106667 0.106667-0.213333 0.213333-0.426666 0.32-0.106667 0.106667-0.213333 0.213333-0.32 0.426666-6.08 6.08-9.386667 14.08-9.386667 22.613334s3.306667 16.533333 9.386667 22.613333c12.48 12.48 12.48 32.746667 0 45.226667s-32.746667 12.48-45.226667 0c-18.133333-18.133333-28.16-42.24-28.16-67.84s10.026667-49.706667 28.16-67.84c0.213333-0.106667 0.32-0.213333 0.426667-0.32zM598.293333 617.386667c0.106667-0.106667 0.213333-0.213333 0.32-0.426667 6.08-6.08 9.386667-14.08 9.386667-22.613333s-3.306667-16.533333-9.386667-22.613334c-12.48-12.48-12.48-32.746667 0-45.226666 6.293333-6.293333 14.4-9.386667 22.613334-9.386667 8.213333 0 16.426667 3.093333 22.613333 9.386667 18.133333 18.133333 28.16 42.24 28.16 67.84s-10.026667 49.706667-28.16 67.84c-0.106667 0.106667-0.213333 0.213333-0.426667 0.32-0.106667 0.106667-0.213333 0.213333-0.32 0.426666-6.08 6.08-9.386667 14.08-9.386666 22.613334s3.306667 16.533333 9.386666 22.613333c12.48 12.48 12.48 32.746667 0 45.226667s-32.746667 12.48-45.226666 0c-18.133333-18.133333-28.16-42.24-28.16-67.84s10.026667-49.706667 28.16-67.84c0.106667-0.106667 0.213333-0.213333 0.426666-0.32zM816 416c-17.173333 0-33.493333-3.84-48-10.773333v15.893333c0 17.706667-14.293333 32-32 32H160c-17.706667 0-32-14.293333-32-32v-96c0-85.44 33.28-165.866667 93.76-226.24 60.48-60.48 140.8-93.76 226.24-93.76s165.866667 33.28 226.24 93.76c33.386667 33.386667 58.453333 72.853333 74.24 115.84C767.253333 200.533333 790.613333 192 816 192c61.76 0 112 50.24 112 112s-50.24 112-112 112zM629.013333 144.106667c-48.32-48.32-112.64-74.986667-181.013333-74.986667s-132.693333 26.666667-181.013333 74.986667S192 256.746667 192 325.12v64h512v-64c0-68.373333-26.666667-132.693333-74.986667-181.013333zM816 256c-26.453333 0-48 21.546667-48 48s21.546667 48 48 48 48-21.546667 48-48-21.546667-48-48-48z"  horiz-adv-x="1024" />

    
    <glyph glyph-name="tuangou" unicode="&#983183;" d="M768 736H256c-52.906667 0-96-43.093333-96-96v-512c0-52.906667 43.093333-96 96-96h512c52.906667 0 96 43.093333 96 96V640c0 52.906667-43.093333 96-96 96z m32-608c0-17.6-14.4-32-32-32H256c-17.6 0-32 14.4-32 32V640c0 17.6 14.4 32 32 32h512c17.6 0 32-14.4 32-32v-512zM704 608c-17.706667 0-32-14.293333-32-32 0-88.213333-71.786667-160-160-160s-160 71.786667-160 160c0 17.706667-14.293333 32-32 32s-32-14.293333-32-32c0-123.52 100.48-224 224-224s224 100.48 224 224c0 17.706667-14.293333 32-32 32z"  horiz-adv-x="1024" />

    
    <glyph glyph-name="cainixihuan" unicode="&#59117;" d="M512-32c-28.928 0-57.92 12.672-86.624 41.376L106.272 332C68.064 379.648 32 424.672 32 512c0 141.152 114.848 256 256 256 53.088 0 104-16.096 147.296-46.592 14.432-10.176 17.92-30.144 7.712-44.608-10.176-14.432-30.08-17.92-44.608-7.712C366.016 691.936 327.808 704 288 704c-105.888 0-192-86.112-192-192 0-61.408 20.288-90.112 59.168-138.688l315.584-318.816C486.72 38.528 499.616 32.192 512 32c12.704-0.192 24.928 6.176 41.376 22.624l316.672 319.904C896.064 402.72 928 450.304 928 512c0 105.888-86.112 192-192 192-48.064 0-94.08-17.856-129.536-50.272l-134.08-134.112c-12.512-12.512-32.736-12.512-45.248 0s-12.512 32.736 0 45.248L562.24 700c48.32 44.192 109.664 68 173.76 68 141.152 0 256-114.848 256-256 0-82.368-41.152-144.288-75.68-181.696l-317.568-320.8C569.952-19.328 540.96-32 512-32z"  horiz-adv-x="1024" />

    
    <glyph glyph-name="jinbi1" unicode="&#58890;" d="M438.908 493.726c92.373 0 188.38 20.314 246.025 58.993v-70.494h53.406v154.42c0 92.835-154.277 142.927-299.432 142.927s-299.425-50.093-299.425-142.928v-421.283c0-92.831 154.272-142.918 299.427-142.918v53.402c-152.429 0-246.021 52.14-246.021 89.517v126.71c57.651-38.678 153.653-58.994 246.021-58.994v53.406c-152.429 0-246.021 52.14-246.021 89.522V552.715c57.64-38.673 153.642-58.988 246.02-58.988z m0 232.441c152.434 0 246.025-52.141 246.025-89.522 0-37.377-93.593-89.513-246.025-89.513-152.429 0-246.021 52.135-246.021 89.513 0 37.381 93.593 89.522 246.021 89.522z m239.352-261.63c-132.588 0-201.963-51.009-201.963-101.39v-270.719c0-50.38 69.376-101.384 201.963-101.384 131.595 0 200.879 50.247 201.907 100.261h0.05V363.152c-0.001 50.381-69.367 101.384-201.957 101.384z m0-53.406c98.01 0 148.55-33.631 148.55-47.983 0-14.356-50.541-47.988-148.55-47.988-98.017 0-148.557 33.63-148.557 47.988 0 14.352 50.55 47.983 148.557 47.983z m0-366.672c-98.017 0-148.557 33.633-148.557 47.983v64.627c33.888-18.403 83.623-30.656 148.557-30.656s114.662 12.254 148.55 30.656v-64.627c0-14.351-50.541-47.983-148.55-47.983z m0 135.355c-98.017 0-148.557 33.631-148.557 47.983v64.627c33.888-18.404 83.623-30.662 148.557-30.662s114.662 12.248 148.55 30.652v-64.627c0-14.343-50.541-47.975-148.55-47.975z m0 0z"  horiz-adv-x="1024" />

    
    <glyph glyph-name="tubiaozhizuomoban" unicode="&#58905;" d="M234-60.6c-93 0-168.7 75.7-168.7 168.7V663.7c0 93 75.7 168.7 168.7 168.7h555.7c93 0 168.7-75.7 168.7-168.7V108c0-93-75.7-168.7-168.7-168.7H234zM789.6 831.6c44.9 0 87-17.5 118.7-49.2 31.7-31.7 49.2-73.9 49.2-118.7V108c0-44.9-17.5-87-49.2-118.7-31.7-31.7-73.9-49.2-118.7-49.2H234c-44.9 0-87 17.5-118.7 49.2C83.5 21 66 63.2 66 108.1V663.7c0 44.9 17.5 87 49.2 118.7 31.7 31.7 73.9 49.2 118.7 49.2h555.7m0 1.5H234c-93.6 0-169.4-75.8-169.4-169.4V108c0-93.6 75.8-169.4 169.4-169.4h555.7c93.6 0 169.4 75.8 169.4 169.4V663.7c-0.1 93.6-75.9 169.4-169.5 169.4zM231.4 446.4l-39.9-39.7 216-215.1 39.9 39.7zM788.4 577.3L404.8 194.4l42.6-42.6 383.7 382.9z"  horiz-adv-x="1024" />

    
    <glyph glyph-name="bianji1" unicode="&#983812;" d="M121.018182-16.290909h786.618182V-81.454545H121.018182zM176.872727 114.036364H186.181818l204.8 65.163636c4.654545 0 9.309091 4.654545 13.963637 9.309091l465.454545 465.454545c4.654545 4.654545 9.309091 13.963636 9.309091 23.272728s-4.654545 18.618182-9.309091 23.272727l-144.290909 144.290909c-13.963636 13.963636-32.581818 13.963636-46.545455 0l-465.454545-465.454545c-4.654545-4.654545-4.654545-9.309091-9.309091-13.963637L139.636364 160.581818c-4.654545-13.963636 0-23.272727 9.309091-32.581818 9.309091-9.309091 18.618182-13.963636 27.927272-13.963636z m93.090909 223.418181l432.872728 432.872728 97.745454-97.745455-432.872727-432.872727-139.636364-41.890909 41.890909 139.636363z"  horiz-adv-x="1024" />

    
    <glyph glyph-name="praise" unicode="&#59154;" d="M157.76 462.912c0.001 0.076 0.001 0.166 0.001 0.257 0 17.606-14.218 31.891-31.799 31.999-0.33 0-0.65-0.192-0.906-0.192l-81.28 0.192c-24.028-0.287-43.397-19.832-43.397-43.901 0-0.226 0.002-0.452 0.005-0.677l-0.384-534.494c0-24.64 19.392-43.904 43.392-43.904 2.304 0 4.608-0.384 6.848 0l75.712-0.064c16.229 1.077 28.986 14.505 28.986 30.912 0 16.407-12.756 29.835-28.892 30.907l-62.045 0.453 1.728 496.256h60.16c17.618 0.072 31.873 14.371 31.873 32 0 0.090-0 0.18-0.001 0.27zM922.56 533.056c-2.049 0.325-4.413 0.511-6.82 0.513l-249.628 0.831c16.384 48.192 27.648 105.6 27.648 159.552 0 34.944-3.84 68.992-11.008 101.76-13.568 57.408-63.488 100.288-123.392 100.288-69.632 0-116.096-59.392-116.096-130.944 0-3.968-0.32-7.872 0-11.712-3.648-133.76-110.912-241.28-238.592-256v-67.712l-0.96-274.176v-283.392h631.68c23.552 0 36.8 5.952 58.176 19.904 20.288 13.312 35.52 31.488 45.568 52.032 4 5.887 6.67 12.98 7.425 20.636l92.415 417.956c0.899 3.427 1.416 7.36 1.416 11.415 0 1.253-0.049 2.495-0.146 3.723 0.25 2.843 0.386 6.345 0.386 9.879 0 25.607-7.161 49.542-19.591 69.91-23.153 38.129-57.265 53.809-98.545 55.537zM880.704-42.048c-4.161-9.785-11.598-17.506-20.907-21.927-0.371-0.796-7.098-3.15-14.349-3.526 1.336 0.557-0.52 0.301-2.44 0.301l-580.096 0.64-0.256 502.656c108.672 49.664 188.352 98.24 229.376 214.144 3.84 11.2 7.936 25.472 10.816 40.832 6.784 36.032 6.4 71.68 6.4 71.68-6.016 46.848 31.552 65.344 53.952 65.344 30.72-1.024 61.12-41.472 61.12-64.512 0 0 6.784-34.048 6.848-70.592 0.064-46.080-5.632-70.080-5.632-70.080-11.871-58.63-34.923-110.438-66.97-155.389 26.773 41.887 25.268 34.719 25.233 27.204 0.009-23.815 23.241-26.055 47.177-26.055l290.368-0.32 17.856-0.576c14.72 0.64 29.44-6.528 37.76-20.352 3.947-6.47 6.284-14.297 6.284-22.669 0-4.679-0.73-9.188-2.082-13.418l-100.458-453.448z"  horiz-adv-x="1041" />

    
    <glyph glyph-name="lianyiqun" unicode="&#58932;" d="M120.527 81.065c1.849 10.983 3.57 21.991 5.566 32.948 15.085 82.79 55.207 151.155 118.819 205.958 21.189 18.254 42.729 36.121 63.431 54.909 12.514 11.357 24.201 23.724 35.435 36.37 29.946 33.705 36.321 72.551 21.942 114.56-7.268 21.232-16.131 42.021-25.67 62.355-22.449 47.854-37.483 97.792-44.424 150.143-1.619 12.208-2.012 24.575-3.093 36.858-0.323 3.665 0.786 5.554 4.595 6.681 39.845 11.788 79.629 23.785 119.441 35.686 6.725 2.011 7.659 1.544 11.132-4.877 11.3-20.892 23.493-41.164 40.974-57.644 3.819-3.6 7.773-7.154 12.088-10.113 14.865-10.199 31.356-10.060 46.018 0.469 12.291 8.827 22.546 19.856 30.566 32.573 7.159 11.352 13.271 23.397 19.324 35.398 2.193 4.347 4.485 5.77 9.176 4.55 1748.165-474.399 3775.322-789.511 5861.398-876.603-5734.994 844.060-5734.453 842.223-5734.184 839.264 1.948-21.413-3.315-41.856-8.526-62.224-14.86-58.082-35.815-114.027-60.205-168.718-11.327-25.401-14.707-51.514-6.466-78.302 6.635-21.57 19.66-38.803 38.533-51.474 95.975-64.436 162.618-152.038 204.421-259.184 9.446-24.213 17.235-48.972 22.016-74.562 0.851-4.554 0.9-9.609-0.151-14.088-1.866-7.953-4.211-15.925-7.49-23.39-15.003-34.163-46.088-49.23-82.345-40.096-18.622 4.691-36.96 10.673-55.743 14.526-31.657 6.496-63.588 7.92-95.472 0.777-7.143-1.601-13.391-4.643-19.336-9.163-32.696-24.864-69.283-40.637-110.207-45.864-2.904-0.371-5.795-0.849-8.692-1.279h-32.586c-2.755 0.321-5.512 0.63-8.266 0.962-15.17 1.829-30.42 3.163-45.49 5.605-28.548 4.626-55.015 15.41-80.087 29.487-18.914 10.619-38.955 12.697-60.090 11.060-18.676-1.447-37.45-2.566-56.164-2.357-24.575 0.274-48.906 3.47-72.002 12.605-16.61 6.569-31.99 15.12-40.769 31.69-3.104 5.858-4.982 12.367-7.419 18.579v5.927zM831.939 40.51l0.272 0.831c3.103 0.268 6.263 0.248 9.299 0.855 9.175 1.833 14.494 8.712 19.307 15.813 8.315 12.265 7.662 25.255 3.857 39.156-34.095 124.565-104.89 222.798-211.17 295.76-10.12 6.947-19.734 13.995-26.654 24.863-7.977 12.528-15.877 24.912-21.001 38.908-2.985 8.153-7.936 9.956-15.714 5.822-26.674-14.178-55.059-22.565-85.26-23.679-30.177-1.113-58.765 5.706-85.413 19.993-6.255 3.354-12.778 1.089-15.169-6.337-3.956-12.287-8.485-24.594-14.526-35.963-13.913-26.184-33.991-47.545-56.068-67.025-25.287-22.312-51.172-43.96-76.113-66.647-44.867-40.807-76.614-89.93-91.074-149.319-3.841-15.778-6.295-31.895-9.294-47.875-1.262-6.727 0.356-12.169 5.782-17.136 8.853-8.105 19.355-12.314 30.605-15.047 29.147-7.080 58.749-6.135 88.357-4.486 15.079 0.839 30.074 3.253 45.271 1.043 17.183-2.499 32.945-8.805 48.145-16.812 16.754-8.824 33.836-16.762 52.336-21.354 27.195-6.75 54.896-8.019 82.741-8.359 40.836-0.498 76.79 13.131 108.627 37.892 9.067 7.052 18.75 11.914 29.521 15.166 16.004 4.83 32.423 7.196 49.074 7.632 38.269 0.998 75.111-6.922 111.421-18.18 7.463-2.314 15.218-3.702 22.841-5.516zM499.762 474.769c33.493-0.365 64.096 10.055 91.539 29.929 2.949 2.136 6.369 5.607 6.833 8.851 2.269 15.895 6.078 31.308 12.598 45.944 22.756 51.080 42.739 103.168 57.246 157.232 3.056 11.389 5.239 23.026 7.483 34.613 0.949 4.895-2.362 7.807-6.591 8.937-20.15 5.381-40.354 10.57-60.569 15.705-6.709 1.704-10.293 0.057-14.004-5.818-2.808-4.446-5.525-8.955-8.448-13.324-12.41-18.548-27.078-34.794-47.215-45.253-13.992-7.268-28.655-11.493-44.64-8.776-22.028 3.743-39.966 15.156-54.597 31.303-9.994 11.031-18.351 23.568-27.193 35.612-4.294 5.849-7.123 7.773-12.944 6.074-20.808-6.072-41.583-12.265-62.292-18.665-4.335-1.339-7.172-4.48-6.507-9.661 0.648-5.053 0.981-10.149 1.738-15.184 7.006-46.646 20.987-91.084 41.517-133.579 12.867-26.633 24.562-53.796 31.18-82.838 0.4-1.751 1.775-3.453 3.088-4.795 25.014-25.592 55.831-36.66 91.776-36.308z"  horiz-adv-x="1024" />

    
    <glyph glyph-name="gou" unicode="&#58885;" d="M925.4 558.4c-22.5 53.3-54.8 101.2-95.9 142.2-41.1 41.1-89 73.4-142.3 95.9-55.2 23.4-113.8 35.3-174.2 35.3-60.4 0-119-11.8-174.2-35.2-53.3-22.5-101.2-54.8-142.3-95.9s-73.4-88.9-95.9-142.2c-23.3-55.2-35.2-113.8-35.2-174.2s11.8-119 35.2-174.2c22.5-53.3 54.8-101.2 95.9-142.3 41.1-41.1 89-73.4 142.3-95.9 55.2-23.3 113.8-35.2 174.2-35.2s119 11.8 174.2 35.2c1.8 0.7 3.5 1.5 5.2 2.2 22.2 9.6 43.9 20.5 64.1 34 7.3 4.9 14.5 10 21.2 15.6 10.8 8.9 12.4 24.8 3.6 35.6-8.9 10.9-24.9 12.5-35.7 3.7-4.7-3.8-9.7-7.5-14.7-10.9-48.9-33.3-108.6-53-167-61.1-16.8-2.3-33.9-3.5-50.9-3.5-106 0-205.6 41.3-280.6 116.2-74.9 74.9-116.2 174.6-116.2 280.6s41.3 205.6 116.2 280.6c75 74.8 174.6 116.1 280.6 116.1s205.6-41.3 280.6-116.2c74.9-74.9 116.2-174.6 116.2-280.6 0-28.6-3-56.8-8.9-84.1-0.2-0.9-0.5-1.8-0.6-2.7 0 0-0.1-0.4-0.2-1.2-5.2-23.3-12.6-45.9-21.9-67.7-0.6-1.3-1.1-2.5-1.5-3.6-2.5-5.5-5.1-11.1-8.1-16.8-6.4-12.5-1.5-27.8 11-34.2 3.7-1.9 7.7-2.8 11.6-2.8 9.2 0 18.1 5 22.6 13.8 24.2 47.1 33.6 89.4 35.9 101 7.2 32.1 10.8 65 10.8 98.4 0.1 60.3-11.8 118.9-35.1 174.1zM725.9 559.6l-269.6-298.3-158.4 137.2c-10.6 9.2-26.7 8-35.8-2.6-9.2-10.6-8-26.7 2.6-35.8l177.2-153.4c4.8-4.2 10.7-6.2 16.6-6.2 6.9 0 13.8 2.8 18.9 8.4l286.2 316.7c9.4 10.4 8.6 26.5-1.8 35.9-10.5 9.3-26.5 8.5-35.9-1.9z"  horiz-adv-x="1024" />

    
    <glyph glyph-name="weixin" unicode="&#58629;" d="M351.55 530.653c16.687 0 27.886 11.345 27.886 28.246 0 16.979-11.199 28.174-27.886 28.174-16.68 0-33.518-11.194-33.518-28.174-0-16.9 16.837-28.246 33.518-28.246zM507.433 587.073c-16.687 0-33.447-11.194-33.447-28.174 0-16.901 16.759-28.246 33.447-28.246 16.823 0 27.951 11.345 27.951 28.246 0 16.978-11.128 28.174-27.951 28.174zM702.387 378.221c16.759 0 27.95 11.199 27.95 22.541 0 11.269-11.191 22.615-27.95 22.615-10.977 0-22.034-11.345-22.034-22.615 0.001-11.341 11.057-22.541 22.034-22.541zM579.88 378.221c16.901 0 27.878 11.199 27.878 22.541 0 11.269-10.977 22.615-27.878 22.615-11.050 0-22.248-11.345-22.248-22.615 0-11.341 11.198-22.541 22.248-22.541zM76.754 412.324c0-242.515 196.569-439.074 439.090-439.074 242.522 0 439.090 196.56 439.090 439.074s-196.569 439.071-439.090 439.071c-242.521 0-439.090-196.557-439.090-439.071zM627.226 525.897c-105.821 0-189.393-80.057-189.393-178.63 0-16.466 2.565-32.273 6.883-47.345-6.883-0.586-13.764-0.878-20.783-0.878-27.815 0-50.205 5.706-78.013 11.341l-77.87-39.59 22.248 67.911c-55.766 39.515-89.132 90.377-89.132 152.36 0 107.424 100.332 192.018 222.768 192.018 109.551 0 205.495-67.615 224.734-158.505-7.018 0.805-14.194 1.319-21.44 1.319zM830.526 349.904c0-50.861-33.296-95.94-78.013-129.891l16.759-56.496-61.104 33.881c-22.327-5.635-44.639-11.269-66.821-11.269-105.962 0-189.536 73.399-189.536 163.776 0 90.301 83.574 163.844 189.536 163.844 100.039-0.001 189.179-73.544 189.179-163.845z"  horiz-adv-x="1000" />

    
    <glyph glyph-name="wujiaoxing" unicode="&#58625;" d="M807.231 282.875l128.771 132.79c21.44 22.033 28.656 53.901 18.965 83.25-9.895 29.351-34.839 50.494-65.279 55.227l-165.804 25.434c-27.831 2.384-51.331 19.544-62.599 43.448l-75.033 160.81c-13.332 28.806-42.606 47.431-74.35 47.431-31.539 0-60.674-18.624-74.075-47.431l-75.859-162.344c-11.407-23.084-34.358-39.463-61.432-41.812l-166.147-25.537c-30.511-4.666-55.523-25.876-65.418-55.296-9.62-29.212-2.335-61.084 19.104-83.046l130.558-134.866c0.135 0 0-0.066 0.135-0.138 12.509-13.382 20.204-31.39 20.204-51.175 0-3.164-0.413-6.096-0.689-9.094l-30.646-188.457c-5.015-31.186 7.834-61.934 33.535-80.285 25.283-17.909 60.33-19.643 86.853-4.938l143.816 77.459c11.681 7.183 25.492 11.372 40.196 11.372 13.127 0 25.427-3.471 36.214-9.33l147.527-79.434c12.236-6.707 25.978-10.178 39.786-10.178 16.969 0 33.324 5.142 47.343 15.050 25.7 18.352 38.481 49.102 33.394 80.285l-29.27 180.392c0 0.816 0.137 1.598 0 2.415-0.961 4.974-1.51 9.979-1.51 15.221 0 20.5 8.244 39.054 21.576 52.644 0.001-0.003 0.001 0.063 0.136 0.132z"  horiz-adv-x="1024" />

    
    <glyph glyph-name="shezhi" unicode="&#58883;" d="M620.741632 37.957632h-0.004096c-13.331456 0.006144-26.293248 5.516288-34.6624 14.751744-11.404288 12.504064-47.538176 45.018112-77.115392 45.018112-29.37344 0-66.06848-32.702464-76.607488-44.155904-8.348672-9.079808-21.220352-14.49984-34.422784-14.49984-6.291456 0-12.224512 1.204224-17.645568 3.586048l-0.949248 0.411648-89.903104 50.2784-0.896 0.623616c-16.36352 11.457536-22.592512 33.867776-14.482432 52.127744 0.062464 0.13824 8.293376 19.130368 8.293376 36.446208 0 52.549632-42.754048 95.30368-95.302656 95.30368h-3.186688a13.9776 13.9776 0 0 0-0.576512-0.012288c-15.055872 0-27.309056 13.372416-31.230976 34.069504-0.310272 1.657856-7.666688 40.907776-7.666688 71.831552 0 30.927872 7.354368 70.181888 7.666688 71.840768 3.964928 20.957184 16.4864 34.418688 31.808512 34.05824h3.186688c52.548608 0 95.301632 42.753024 95.301632 95.299584 0 17.31072-8.225792 36.299776-8.312832 36.489216-8.101888 18.240512-1.830912 40.648704 14.608384 52.069376l0.930816 0.64512 94.87872 52.117504 0.98816 0.418816c5.34528 2.2784 11.194368 3.432448 17.393664 3.432448 13.177856 0 26.070016-5.302272 34.500608-14.184448 11.229184-11.756544 46.724096-42.33728 75.454464-42.33728 28.46208 0 63.740928 29.974528 74.934272 41.527296 8.382464 8.699904 21.184512 13.912064 34.2272 13.912064 6.325248 0 12.284928-1.196032 17.717248-3.556352l0.960512-0.418816 91.638784-50.911232 0.905216-0.63488c16.398336-11.440128 22.641664-33.851392 14.52544-52.1216-0.059392-0.139264-8.293376-19.132416-8.293376-36.448256 0-52.545536 42.754048-95.299584 95.299584-95.299584h3.191808c15.296512 0.342016 27.836416-13.097984 31.803392-34.05824 0.31232-1.657856 7.666688-40.907776 7.666688-71.8336 0-30.928896-7.355392-70.180864-7.672832-71.83872-3.96288-20.958208-16.50176-34.369536-31.804416-34.056192h-3.18464c-52.545536 0-95.299584-42.754048-95.299584-95.30368 0-17.307648 8.225792-36.293632 8.30976-36.482048 8.09472-18.23232 1.837056-40.643584-14.569472-52.074496l-0.917504-0.644096-93.18912-51.506176-0.969728-0.41984c-5.33504-2.292736-11.158528-3.46112-17.32608-3.46112z m-2.828288 43.904c0.41472-0.272384 1.594368-0.734208 2.829312-0.734208 0.052224 0 0.098304 0 0.141312 0.002048l87.063552 48.119808c-2.102272 4.880384-11.710464 28.577792-11.710464 53.289984 0 73.918464 58.216448 134.494208 131.209216 138.281984 1.048576 5.801984 6.751232 38.43584 6.751232 62.915584 0 24.479744-5.701632 57.09824-6.751232 62.916608-72.991744 3.790848-131.209216 64.367616-131.209216 138.279936 0 24.752128 9.637888 48.477184 11.71968 53.322752l-85.651456 47.586304c-0.098304 0.004096-0.219136 0.013312-0.359424 0.013312-1.4592 0-2.822144-0.533504-3.273728-0.838656-1.439744-1.477632-13.851648-14.067712-31.68768-26.611712-26.399744-18.571264-51.361792-27.990016-74.19904-27.990016-23.054336 0-48.218112 9.604096-74.786816 28.539904-17.9456 12.787712-30.41792 25.621504-31.859712 27.12576-0.454656 0.308224-1.83808 0.857088-3.308544 0.857088-0.114688 0-0.21504-0.004096-0.305152-0.009216l-88.718336-48.728064c2.12992-4.941824 11.701248-28.597248 11.701248-53.26848 0-73.91232-58.215424-134.489088-131.209216-138.279936-1.047552-5.805056-6.750208-38.433792-6.750208-62.916608 0-24.476672 5.701632-57.095168 6.756352-62.911488 72.9856-3.791872 131.203072-64.365568 131.203072-138.281984 0-24.802304-9.675776-48.566272-11.737088-53.3504l83.969024-46.952448c0.053248-0.008192 0.11776-0.008192 0.188416-0.008192 1.225728 0 2.387968 0.449536 2.804736 0.717824 1.569792 1.68448 14.108672 14.959616 32.176128 28.201984 26.923008 19.733504 52.51072 29.737984 76.050432 29.737984 23.760896 0 49.543168-10.19392 76.623872-30.308352 18.17088-13.485056 30.765056-27.006976 32.329728-28.719104z m-108.6464 175.44192c-69.98016 0-126.913536 56.936448-126.913536 126.916608s56.9344 126.91456 126.913536 126.91456c69.982208 0 126.91968-56.9344 126.91968-126.91456-0.001024-69.98016-56.937472-126.916608-126.91968-126.916608z m0 210.663424c-46.176256 0-83.741696-37.567488-83.741696-83.743744 0-46.181376 37.566464-83.74784 83.741696-83.74784 46.180352 0 83.753984 37.566464 83.753984 83.74784-0.001024 46.176256-37.571584 83.743744-83.753984 83.743744z"  horiz-adv-x="1024" />

    
    <glyph glyph-name="huanyipi" unicode="&#58626;" d="M704 576h192v192h-64v-78.976c-64 100.416-193.408 142.976-332.992 142.976-246.976 0-441.536-201.024-441.536-448s204.224-448 451.264-448c147.264 0 279.36 71.744 361.088 181.824l-51.456 36.416c-70.080-93.504-180.992-154.24-306.752-154.24-212.032 0-383.808 171.968-383.808 384s172.16 387.52 384.192 385.024c169.152-2.048 215.616-65.024 286.016-129.024h-94.016v-64zM857.984 623.616v-1.6h-2.432l2.432 1.6z"  horiz-adv-x="1024" />

    
    <glyph glyph-name="message" unicode="&#58896;" d="M118.857 704v-603.429h121.905v-137.663l293.077 137.663h371.304v603.429h-786.286zM850.285 155.429h-328.688l-225.978-106.146v106.146h-121.905v493.714h676.571v-493.714zM329.143 493.714h365.714v-60.953h-365.714zM329.143 371.81h365.714v-60.952h-365.714z"  horiz-adv-x="1024" />

    
    <glyph glyph-name="quanqiujinkou" unicode="&#58938;" d="M800 515.2v6.4l-64 156.8V736c0 54.4-41.6 96-96 96h-256c-54.4 0-96-41.6-96-96v-54.4l-89.6-153.6c-3.2-3.2-6.4-9.6-6.4-16v-480c0-54.4 44.8-96 96-96h416c54.4 0 96 41.6 96 96V512v3.2zM256 32V480h224c9.6 0 16 6.4 16 16s-6.4 16-16 16H262.4l76.8 128H576c9.6 0 16 6.4 16 16S585.6 672 576 672h-224V736c0 19.2 12.8 32 32 32h256c19.2 0 32-12.8 32-32V656l-96-153.6V0H288c-16 0-32 12.8-32 32z m448-32h-96V492.8l83.2 128 44.8-115.2V32c0-19.2-12.8-32-32-32z"  horiz-adv-x="1024" />

    
    <glyph glyph-name="gouwuchekong" unicode="&#58630;" d="M418.01668287126813 237.92307280562818q10.203903002548028 0 19.33371095219627-3.7593326851492748t15.842902030271944-10.472426765772976 10.740950528997928-15.842902030271944 4.027856448374222-19.33371095219627-4.027856448374222-19.33371095219627-10.740950528997928-15.842902030271944-15.842902030271944-10.740950528997928-19.33371095219627-4.027856448374222q-10.740950528997928 0-19.870758478646163 4.027856448374222t-15.842902030271944 10.740950528997928-10.740950528997928 15.842902030271944-4.027856448374222 19.33371095219627 4.027856448374222 19.33371095219627 10.740950528997928 15.842902030271944 15.842902030271944 10.472426765772976 19.870758478646163 3.7593326851492748zM641.428453874425 236.8489777527285q10.203903002548028 0 19.60223471542122-3.7593326851492748t16.11142579349689-10.472426765772976 10.740950528997928-15.842902030271944 4.027856448374222-19.33371095219627-4.027856448374222-19.33371095219627-10.740950528997928-15.842902030271944-16.11142579349689-10.740950528997928-19.60223471542122-4.027856448374222-19.33371095219627 4.027856448374222-15.842902030271944 10.740950528997928-10.740950528997928 15.842902030271944-4.027856448374222 19.33371095219627 4.027856448374222 19.33371095219627 10.740950528997928 15.842902030271944 15.842902030271944 10.472426765772976 19.33371095219627 3.7593326851492748zM731.6524383180077 541.8919727762695q15.037330740597099 0 23.361567400570493-4.027856448374222t11.815045581897717-9.935379239323082 3.2222851586993775-12.620616871572565-1.8796663425746374-11.546521818672769-6.981617843848653-19.870758478646163-11.546521818672769-33.02842287666863-12.352093108347617-35.71366050891811-9.935379239323082-27.926471375394613q-6.981617843848653-21.481901057995856-17.454044609621636-29.80613771796925t-26.046805032819982-8.324236659973394l-18.796663425746374 0-34.37104169279336 0-45.1119922217913 0-50.48246748629026 0-133.1877865595743 0 7.5186653702985495-48.33427738049066 271.2090008571977 0q25.77828126959502 0 25.77828126959502-22.018948584445752 0-10.740950528997928-5.101951501274014-18.796663425746374t-20.139282241871115-7.5186653702985495l-25.77828126959502 0-49.40837243339047 0-62.29751306818798 0-62.83456059463789 0-52.093610065639965 0-29.0005664282944 0q-10.740950528997928 0-17.991092136071533 4.833427738049068t-12.083569345122665 12.620616871572565-7.787189133523498 16.916997083171736-4.564903974824119 17.18552084639668q-0.5370475264498963 3.2222851586993775-2.9537613954744293 15.574378267046995t-5.907522790948859 30.880232770869043-7.787189133523498 41.35265953664202-8.59276042319834 45.917563511466156q-10.203903002548028 54.241800171439536-23.093043637345538 120.83569345122669l-40.27856448374223 0q-8.055712896748444 0-13.42618816124741 4.027856448374222t-8.86128418642329 9.666855476098135-4.833427738049068 12.083569345122665-1.342618816124741 11.815045581897717q0 10.740950528997928 7.2501416070736 17.72256837284658t19.60223471542122 6.444570317398755l54.241800171439536 0q10.740950528997928 0 17.18552084639668-3.2222851586993775t10.203903002548028-8.055712896748444 5.370475264498964-9.935379239323082 2.685237632249482-8.86128418642329q1.0740950528997926-4.29638021159917 2.148190105799585-12.083569345122665t2.148190105799585-15.842902030271944q1.6111425793496887-9.666855476098135 3.2222851586993775-20.407806005096056l367.34050809172925 0zM711.7816798393615 494.09474292222876l-336.19175155763526 1.0740950528997926 18.796663425746374-97.20560228743122 280.87585633329587-0.5370475264498963z"  horiz-adv-x="1028" />

    
    <glyph glyph-name="shoucang" unicode="&#58631;" d="M707.584 802.816c-77.312 0-148.992-38.912-196.608-102.912-47.104 64-119.296 102.912-196.608 102.912-139.264 0-252.416-123.904-252.416-275.968 0-90.624 40.448-154.624 73.216-205.824 94.72-148.992 333.312-333.824 343.552-341.504 9.728-7.68 20.992-11.264 32.256-11.264s22.528 3.584 32.256 11.264c10.24 7.68 248.32 193.024 343.552 341.504 32.768 51.2 73.216 115.2 73.216 205.824 0 152.064-113.152 275.968-252.416 275.968z"  horiz-adv-x="1024" />

    
    <glyph glyph-name="icon-test" unicode="&#58934;" d="M856.53125 834H167.46875C109.221875 834 62 786.778125 62 728.53125v-689.0625c0-58.246875 47.221875-105.46875 105.46875-105.46875h689.0625c58.246875 0 105.46875 47.221875 105.46875 105.46875V728.53125c0 58.246875-47.221875 105.46875-105.46875 105.46875zM602.56953125 663.2390625c37.51875 0 67.92890625-38.446875 67.92890625-85.8796875s-30.41015625-85.8796875-67.92890625-85.8796875c-37.51171875 0-67.921875 38.446875-67.921875 85.8796875s30.41015625 85.8796875 67.921875 85.8796875zM439.54296875 665.25c37.51171875 0 67.92890625-38.45390625 67.92890625-85.8796875 0-47.4328125-30.4171875-85.88671875-67.92890625-85.88671875s-67.92890625 38.45390625-67.92890625 85.88671875c0 47.42578125 30.41015625 85.8796875 67.92890625 85.8796875zM244.8125 416.64609375c0 47.4328125 30.41015625 85.88671875 67.92890625 85.88671875 37.51171875 0 67.92890625-38.45390625 67.92890625-85.88671875 0-47.42578125-30.4171875-85.8796875-67.92890625-85.8796875-37.51875 0-67.92890625 38.446875-67.92890625 85.8796875zM634.2734375 102.75c-22.5 0-43.1859375 7.53046875-59.8640625 20.08828125H465.0171875a99.21796875 99.21796875 0 0 0-57.17109375-18.07734375c-55.0265625 0-99.6328125 44.51484375-99.6328125 99.44296875 0 30.80390625 14.04140625 58.33125 36.07734375 76.5703125L424.63671875 369.234375c15.075 35.8171875 50.53359375 60.975 91.89140625 60.975 42.57421875 0 78.80625-26.7046875 93.065625-64.20234375l1.06875 0.92109375L687.359375 286.23749999999995c27.93515625-17.6203125 46.53984375-48.628125 46.53984375-84.04453125C733.90625 147.27187500000002 689.29296875 102.75 634.2734375 102.75z m76.98515625 228.01640625c-37.51171875 0-67.92890625 38.45390625-67.92890625 85.8796875 0 47.4328125 30.4171875 85.88671875 67.92890625 85.88671875 37.51875 0 67.92890625-38.45390625 67.92890625-85.88671875 0-47.4328125-30.41015625-85.8796875-67.92890625-85.8796875z"  horiz-adv-x="1024" />

    
    <glyph glyph-name="tushu" unicode="&#59021;" d="M767.2 831.9c17.5 0 31.8-14.1 32-31.6v-96.2H863c17.6 0 31.9-14.2 31.9-32v-32H128.1v128c0 35.3 28.7 63.8 63.6 63.8h575.5z m-32-63.9H223.7c-17.6-0.1-31.8-14.4-31.7-32 0-17.8 14.2-32 31.7-32h511.5v64zM128.1 640.2H895v-639.4c0-35.1-28.7-63.6-64.1-63.6H192.2c-16.9-0.1-33.2 6.6-45.2 18.5s-18.8 28.2-18.9 45.1V640.2z m63.9 0v-607.4c0.1-17.4 14.3-31.6 31.7-31.7h575.7c17.4 0.1 31.6 14.3 31.7 31.7V640.2H192z m474.8-222.5h-349c-16 0-29 14.1-29 31.4 0 17.3 13 31.3 29 31.3h349c16 0 29-14.1 29-31.3 0-17.4-13-31.4-29-31.4zM513.9 289.9h-194c-8.3 0-16.2 3.4-22 9.2-5.8 5.9-9.1 13.9-9 22.1 0 17.3 13.9 31.3 31.1 31.3h193.9c17.2 0 31.1-14.1 31.1-31.3 0-8.3-3.2-16.2-9-22.1-6-5.9-13.9-9.2-22.1-9.2z m0 0"  horiz-adv-x="1024" />

    
    <glyph glyph-name="more" unicode="&#58627;" d="M805.459 383.34799999999996l-277.917-278.09c-12.46-12.46-32.661-12.45999999-45.113 0-12.46 12.454-12.46 32.653 0 45.113l233.059 233.05899999-234.202 234.20000001c-12.454 12.454-12.454 32.653 0 45.113 12.46 12.454 32.66 12.454 45.113 0l26.095-26.095-0.17900001-0.161 253.14300001-253.143zM550.254 383.34799999999996l-277.917-278.09c-12.46-12.46-32.661-12.45999999-45.113 0-12.46 12.454-12.46 32.653 0 45.113l233.059 233.059-234.202 234.2c-12.454 12.454-12.454 32.653 0 45.113 12.46 12.454 32.66 12.454 45.113 0l26.095-26.095-0.179-0.161 253.143-253.143z"  horiz-adv-x="1024" />

    
    <glyph glyph-name="guanzhu" unicode="&#59040;" d="M726.016 785.408c-84.1728 0-162.6112-81.92-214.016-143.36-51.6096 61.44-129.8432 143.36-214.016 143.36-151.7568 0-275.2512-119.1936-275.2512-265.6256 0-87.4496 44.2368-148.6848 79.872-197.8368 103.424-142.9504 363.1104-320.9216 374.1696-328.4992 10.6496-7.168 22.9376-10.8544 35.4304-10.8544 12.4928 0 24.7808 3.6864 35.4304 10.8544 11.0592 7.5776 270.9504 185.5488 374.1696 328.4992 35.6352 49.152 79.872 110.592 79.872 197.8368C1001.2672 666.2144 877.7728 785.408 726.016 785.408z m0 0"  horiz-adv-x="1024" />

    
    <glyph glyph-name="pinglun_" unicode="&#58897;" d="M530.907 18.162l-32.015 39.913L686.01 208.159h95.542c33.81 0 61.315 27.506 61.315 61.315v368.56c0 33.81-27.506 61.315-61.315 61.315h-538.31c-33.808 0-61.314-27.505-61.314-61.314v-368.561c0-33.81 27.506-61.315 61.315-61.315h298.775v-51.165H243.242c-62.022 0-112.48 50.458-112.48 112.48v368.56c0 62.022 50.458 112.48 112.48 112.48h538.31c62.02 0 112.479-50.458 112.479-112.48v-368.56c0-62.022-50.458-112.48-112.48-112.48h-77.558L530.907 18.162zM324.153 456.985a45.28 45.28 0 1 1 90.56 0 45.28 45.28 0 1 1-90.56 0zM472.269 456.985a45.28 45.28 0 1 1 90.559 0 45.28 45.28 0 1 1-90.559 0zM620.385 456.985a45.28 45.28 0 1 1 90.559 0 45.28 45.28 0 1 1-90.558 0z"  horiz-adv-x="1024" />

    
    <glyph glyph-name="gerenhuli" unicode="&#58886;" d="M716.8 76.8c20.48 0 34.133333 13.653333 34.133333 34.133333V520.533333c0 20.48-13.653333 34.133333-34.133333 34.133334h-307.2c-20.48 0-34.133333-13.653333-34.133333-34.133334v-409.6c0-20.48 13.653333-34.133333 34.133333-34.133333h307.2m0-34.133333h-307.2c-37.546667 0-68.266667 30.72-68.266667 68.266666V520.533333c0 37.546667 30.72 68.266667 68.266667 68.266667h307.2c37.546667 0 68.266667-30.72 68.266667-68.266667v-409.6c0-37.546667-30.72-68.266667-68.266667-68.266666zM580.266667 588.8c20.48 0 34.133333 13.653333 34.133333 34.133333V657.066667c0 20.48-13.653333 34.133333-34.133333 34.133333h-34.133334c-20.48 0-34.133333-13.653333-34.133333-34.133333v-34.133334c0-20.48 13.653333-34.133333 34.133333-34.133333h34.133334m0-34.133333h-34.133334c-37.546667 0-68.266667 30.72-68.266666 68.266666V657.066667c0 37.546667 30.72 68.266667 68.266666 68.266666h34.133334c37.546667 0 68.266667-30.72 68.266666-68.266666v-34.133334c0-37.546667-30.72-68.266667-68.266666-68.266666zM273.066667 554.666667H238.933333V588.8c0 37.546667 30.72 68.266667 68.266667 68.266667h170.666667v-34.133334H307.2c-20.48 0-34.133333-13.653333-34.133333-34.133333v-34.133333M457.386667 305.493333l-27.306667 23.893334 102.4 102.4 27.306667-27.306667-102.4-98.986667z"  horiz-adv-x="1024" />

    
    <glyph glyph-name="baidu" unicode="&#58644;" d="M617.799115 194.15316399999995l-48.212048 0c0 0-6.189979 3.821025-6.189979 14.608719L563.397087 309.921841l-54.407144-0.690732 0-112.530936c0 0 5.258771-29.753651 44.683688-29.753651l91.331102 0L645.004733 302.960289 617.801161 302.960289l0-108.807125L617.799115 194.15316399999995zM454.581776 302.960289l-51.003628 0c0 0-47.073108 1.858324-63.570851-51.53677-5.711072-35.622312 5.102205-49.197492 6.986111-53.715389 1.915629-4.457522 17.136286-30.760584 55.3097-30.760584l79.482239 0L481.785348 371.60571500000003l-27.203572 0.611937L454.581776 302.960289zM454.581776 194.15316399999995l-40.220027 0c0 0-24.781406 0.685615-32.407084 29.219485-3.825119 12.750395 0.610914 24.919553 2.603291 30.65723 1.858324 5.712095 10.147104 21.729907 27.282367 21.729907l42.741453 0L454.581776 194.15316399999995zM512.575608 896C230.134911 896 1.170149 667.008632 1.170149 384.569982c0-282.437627 228.964762-511.394203 511.405459-511.394203 282.439674 0 511.403412 228.956575 511.403412 511.394203C1023.979021 667.008632 795.015282 896 512.575608 896zM543.762911 624.582357c4.063549 37.193087 48.53439 94.254687 84.186378 86.097914 35.545564-8.101515 67.954695-55.226812 61.393255-95.792717-6.431479-40.61707-38.706557-94.199429-88.917122-87.664595C550.297745 533.652392 538.928813 579.0779769999999 543.762911 624.582357zM438.589547 726.940606c37.564547 0 67.956741-43.249013 67.956741-96.646154 0-53.447283-30.391171-96.697319-67.956741-96.697319-37.507242 0-67.950601 43.250036-67.950601 96.697319C370.637922 683.691593 401.082305 726.940606 438.589547 726.940606zM226.653623 497.949238c0 0 8.023744 79.562057 63.092967 84.47495 43.751457 3.77293 75.950809-44.097334 79.294974-71.486124 2.072195-17.769712 11.316743-99.06218-56.715723-113.696482C244.451988 382.654352 219.191675 461.18287 226.653623 497.949238zM744.488515 155.26241200000004c-37.216623-87.722924-173.228343-42.161239-173.228343-42.161239s-50.161447 16.128329-108.361987 3.216251c-58.202587-13.018501-108.385523-8.079002-108.385523-8.079002s-68.087725-1.645476-87.479377 84.368526C247.64061 278.73146799999995 334.986957 325.88541799999996 341.522814 333.908138c6.42841 8.157797 51.776224 38.97364 80.83812 87.693248 29.220508 48.720631 116.564809 87.717807 178.064488-8.076956 45.344744-64.976874 123.05257-125.120672 123.05257-125.120672S781.65295 242.922914 744.488515 155.26241200000004zM733.11856 355.055784c-74.487481-1.676176-77.649498 50.339502-77.649498 87.61036 0 39.050388 8.023744 94.28027 68.00893 94.28027 59.875692 0 75.998905-58.522881 75.998905-77.942163C799.475874 439.452963 807.632648 356.700237 733.11856 355.055784z"  horiz-adv-x="1024" />

    
    <glyph glyph-name="baobao" unicode="&#58945;" d="M831.1-47.5H195.3c-28.5 0-54.3 11.2-72.7 31.5-18.4 20.3-26.9 47.1-24.1 75.5l42.3 417.3c5.8 57.4 57.4 104 115.1 104h514.8c57.6 0 109.3-46.6 115.1-104l42.3-417.3c2.9-28.3-5.7-55.2-24-75.5-18.6-20.3-44.5-31.5-73-31.5z m-575.3 598c-42.5 0-80.6-34.4-84.9-76.8l-42.3-417.3c-2-19.7 3.8-38.3 16.4-52.2 12.6-13.9 30.4-21.6 50.2-21.6h635.9c19.8 0 37.7 7.7 50.2 21.6 12.6 13.9 18.4 32.4 16.4 52.1l-42.3 417.3c-4.3 42.3-42.4 76.8-84.9 76.8H255.8zM287.2 556.7c-2 0-3.9 0.4-5.9 1.2-7.7 3.2-11.3 12.1-8.1 19.8 3.7 8.8 91.6 214.9 229.1 220.6 84.8 3.9 167.4-70.3 244.9-219.4 3.8-7.4 1-16.6-6.5-20.4-7.4-3.8-16.6-1-20.4 6.5-71.5 137.6-145.2 205.9-216.7 203-118.5-4.9-201.6-200.1-202.4-202-2.4-5.8-8.1-9.3-14-9.3zM690.8 317.3c-2.9 0-5.6 1.6-6.9 4.4-1.7 3.8 0 8.3 3.8 10 61.2 27.8 121.8 69.5 180.3 124 3.1 2.8 7.8 2.7 10.7-0.4 2.8-3.1 2.7-7.9-0.4-10.7-59.7-55.6-121.7-98.3-184.4-126.7-1-0.4-2.1-0.6-3.1-0.6zM498.1 274c-207.6 0-351 145.3-352.7 147-2.9 3-2.8 7.8 0.2 10.7 3 2.9 7.8 2.8 10.7-0.2 1.8-1.9 188.4-190.5 441.9-130.6 4.1 1 8.1-1.6 9.1-5.6 1-4.1-1.6-8.1-5.6-9.1-35.9-8.5-70.6-12.2-103.6-12.2zM504.2 327.8m-15.1 0a15.1 15.1 0 1 1 30.2 0 15.1 15.1 0 1 1-30.2 0ZM504.2 370.1m-15.1 0a15.1 15.1 0 1 1 30.2 0 15.1 15.1 0 1 1-30.2 0Z"  horiz-adv-x="1024" />

    
    <glyph glyph-name="down-trangle" unicode="&#58628;" d="M530.877 222.173l285.857 285.857c10.929 10.929 10.929 29.334 0 40.837-10.929 10.929-29.334 10.929-40.837 0l-265.725-265.725-264.573 264.573c-10.929 10.929-29.334 10.929-40.837 0-10.929-10.929-10.929-29.334 0-40.837l284.703-284.703c12.077-11.502 29.908-11.502 41.418 0Z"  horiz-adv-x="1024" />

    
    <glyph glyph-name="shoucang1" unicode="&#58632;" d="M734.53112889 860.51953778c-87.96387555 0-169.51978667-44.27320889-223.69621334-117.09098667-53.59388445 72.81777778-135.73233778 117.09098667-223.69621333 117.09098667-158.45148445 0-287.19331555-140.97521778-287.19331555-313.99025778 0-103.10997333 46.02083555-175.92775111 83.30353778-234.18197333 107.77031111-169.51978667 379.23498667-379.81752889 390.8858311-388.55566222 11.06830222-8.73813333 23.88423111-12.81592889 36.70016-12.8159289s25.63185778 4.07779555 36.70016 12.8159289c11.65084445 8.73813333 282.53297778 219.61841778 390.88583112 388.55566222 37.28270222 58.25422222 83.30353778 131.072 83.30353778 234.18197333 0 173.01504-128.74183111 313.99025778-287.19331556 313.99025778z m129.90691556-546.42460445c-99.61472-139.81013333-310.49500445-299.42670222-320.98076445-306.99975111-9.90321778-7.57304889-21.55406222-11.65084445-32.62236445-11.65084444-11.65084445 0-22.71914667 3.49525333-32.62236444 11.65084444-10.48576 7.57304889-217.28824889 168.93724445-320.98076444 312.82517333-33.20490667 52.4288-86.21624889 117.67352889-86.21624889 209.7152 0 154.95623111 86.21624889 263.89162667 227.77400889 263.89162667 78.6432 0 164.27690667-75.14794667 212.04536888-140.39267555 48.35100445 65.24472889 133.40216889 140.39267555 212.0453689 140.39267555 142.14030222 0 234.18197333-108.93539555 234.18197333-263.89162667 0-92.04167111-58.83676445-163.69436445-92.62421333-215.54062222z"  horiz-adv-x="1024" />

    
    <glyph glyph-name="APP" unicode="&#58965;" d="M232.5 790.8v-813.6h559V790.8h-559z m513-767.6h-467V744.8h467v-721.6zM384.8 706.8h254.4v-46H384.8zM695.9 629.8H328.1v-495.3h367.8V629.8z m-46-449.3H374.1V583.8h275.8v-403.3zM512.3 112.4c-16.3 0-29.5-13.3-29.5-29.5s13.3-29.5 29.5-29.5 29.5 13.3 29.5 29.5-13.2 29.5-29.5 29.5z m0-46c-9.1 0-16.5 7.4-16.5 16.5s7.4 16.5 16.5 16.5 16.5-7.4 16.5-16.5-7.4-16.5-16.5-16.5z"  horiz-adv-x="1024" />

    
    <glyph glyph-name="pinganyinhang" unicode="&#59067;" d="M643.620655 207.321212H415.064372c-11.711354 0-21.15103-9.13196-21.151031-20.813576v-218.616242c0-11.217455 9.439677-20.747636 21.151031-20.747636h228.556283c11.772121 0 21.42901 9.530182 21.42901 20.747636V186.507636c0 11.681616-9.656889 20.813576-21.42901 20.813576z m0 0M634.493867 794.952404c-8.414384 14.514424-22.151758 24.141576-38.469819 24.141576H463.069543c-16.726626 0-30.277818-9.627152-38.782707-24.141576L5.958271-11.300202c-13.954586-26.009859-2.181172-41.55604 22.646949-41.55604H161.15116c19.282747 0 26.574869 4.924768 36.231757 22.833131l331.944081 648.348444 332.070788-648.348444c9.844364-17.908364 17.040808-22.833131 36.227879-22.833131h132.641616c24.701414 0 36.726949 15.546182 22.772363 41.55604L634.493867 794.952404z"  horiz-adv-x="1058" />

    
    <glyph glyph-name="nvzhuang" unicode="&#58633;" d="M244.98214453 804.55113738s59.92333931-200.03143395 75.43557835-255.87594818 27.92225713-99.27787611-62.04895615-217.17021222-189.24682084-142.711238-192.35017606-210.96463605c-3.10222096-68.25339804-7.9636904-89.71940593 21.71668094-117.89233611 36.62775832-34.7686943 118.95514453-51.99934822 179.94129224-62.04895613 49.45405251-8.14857599 214.13718158-64.55682106 300.93584934-31.02447808l86.79980197 33.53234297s40.40033124 16.10659508 121.06374738 3.69771126 116.05822594-9.59816955 142.71237226 15.51223905 65.44154951 62.31097188 34.12669902 130.3023542S698.91590163 399.76064357 686.50588354 436.98956354s1.92031448 142.42086561 21.71668094 201.6579732c19.79750073 59.23710761 21.71668094 176.83907129 21.71668094 176.83907128L574.81798934 865.12441182s-27.33130387-100.77851172-77.11089107-98.86386858c-48.00219041 1.8465871-90.4203831 83.35162952-90.4203831 83.35162954L244.98214453 804.55113738zM881.17450188 345.49162653999997l5.64524815-1.28625906-5.64524815 1.28625906zM418.39572872 253.22125357000004l238.18024466-0.57620779M969.73128387 129.82318418c-13.68833729 26.90822219-27.06021401 46.19870547-57.23852871 82.55310538l-33.64690395 40.3390808c-37.29130468 44.67538453-82.27180712 98.56215348-117.76983525 142.53315805-3.00013689 3.7272022-6.48120311 7.71188309-10.25491029 12.04818682-11.87350966 13.60893857-25.55163855 29.29131771-35.14413676 49.80907815a23.85817754 23.85817754 0 0 1-1.53806641 3.41301019c-12.57108404 28.99981103-16.7814841 67.46394804 2.77782054 122.64264739 35.19404452 99.35840909 52.39861031 176.16871935 49.76143891 222.22677566l-2.20274703 37.76089133-198.25970848 51.14411071-17.71952313-40.40940539c-12.0833491-27.49463835-37.08033098-57.09787957-47.60519684-57.56633192-7.78220765 0-27.99825302 12.96127196-54.37904094 61.52832748l-20.1457208 37.033826-195.36505843-58.57469554 0.98454399-39.56551052c0.09414418-4.10151043 2.97631729-102.03074277 52.64474629-207.22609117 20.1105585-42.65865733 35.59217234-77.58388052 36.79903268-106.06192859 0.46845239-11.08632819 1.58230282-37.08033098-38.4403174-79.41231935-7.31262101-7.73456845-35.18270184-34.66661023-64.68045618-63.19229755-39.92847605-38.58096654-85.17779982-82.31831207-103.47239644-101.49196578-78.35971931-82.10733833-88.81312639-142.46396774-83.77357696-178.6300793 4.36012334-31.31485048 22.31443979-57.70698109 50.53500919-74.3251307 11.42660837-6.72733912 26.13465193-2.92981233 32.86199103 8.53195833 6.72733912 11.41526569 2.91846966 26.13465193-8.5081387 32.86199103-15.77425476 9.28170898-24.97429651 22.59573809-27.3415123 39.56551053-2.92981233 21.0247779 2.39103538 67.01250967 70.96202826 138.85359507 17.61403627 18.47040806 62.5003945 61.85613071 102.10106733 100.13197936 31.18554403 30.14315243 58.12892852 56.18366016 66.19243444 64.71561844 48.37876714 51.14411071 52.57442174 89.81922145 51.5195532 114.43055245-1.58230282 37.43195383-18.87987852 76.8568152-41.34631013 124.50851703-45.37863025 96.12347889-47.97950506 184.20840568-48.07364926 187.91178827l-0.07032458 2.95363195 122.93869117 36.8228523 1.50063557-2.76534357c31.20936363-57.44950242 63.67209261-86.58429123 97.54244722-86.58429122h0.03516228c53.00771182 2.25038625 90.15836737 85.38877354 90.54515248 86.25648797l1.32482415 3.0239565 124.80229226-32.20525027 0.16446876-2.8129828c2.21522396-38.55714693-14.94283688-112.69512355-47.06641993-203.40474478-20.89660571-58.94786944-19.04207875-104.50798244-8.09413115-139.83133344-29.81648343-15.69939314-102.11241-43.78158195-200.92523654-15.28878837-12.78659482 3.65687764-26.05298468-3.67956299-29.72120498-16.40717592-3.66822031-12.72761291 3.66822031-26.04050774 16.40717589-29.72120497 35.51050507-10.24243334 68.1615224-14.20442889 97.44830303-14.20442887 63.12877859 0 110.56610388 18.42163455 136.9922625 32.02603605 10.37173981-16.54442224 21.78813977-29.63500069 30.86681491-40.04190278 3.32794014-3.79752679 6.39840161-7.31262101 9.0593926-10.61787582 35.66249689-44.18311254 80.83015342-98.2808552 118.28592685-143.14339383l33.56523673-40.26875623c30.7635966-37.05764562 40.713389-52.6447463 51.36642709-73.62188498 20.01754858-39.4248614 21.48188762-79.31817516 3.91435631-106.71866934-14.13410431-22.03314151-39.40104177-33.37694836-70.3756121-32.34589945-21.03612058 2.20388129-40.24493662 5.74279512-58.83217417 9.16487947-56.30048967 10.38308249-109.48401292 20.18088309-192.7755263-11.01600362-47.74584599-20.72079427-102.67500656-34.12783327-139.93228322-34.12783329-104.85506823 0-198.77580008 46.94845612-209.13619724 52.31580878-11.82473618 6.04677876-26.26395838 1.45299635-32.34589941-10.31389217-6.08194104-11.76575428-1.46547331-26.25148144 10.3127579-32.34589942 18.63374252-9.63333183 117.38305012-57.66047611 231.16933875-57.66047614 43.9834815 0 104.93673546 14.6025567 157.89794235 37.64292754 69.696186 26.04050774 112.23801382 18.2117951 166.12478275 8.297165 19.49011431-3.58655308 39.6358351-7.31262101 64.09404002-9.7978006 48.99921132-2.08591749 90.86161305 17.86017226 114.21957873 54.28489678 26.84810603 41.88508708 26.27303253 99.59206815-1.53693215 154.36923688z"  horiz-adv-x="1024" />

    
    <glyph glyph-name="renrenwang-" unicode="&#59111;" d="M613.26582688 521.84812969c9.17785219-96.7763925 48.13631344-230.80098094 118.24613249-345.11096625 103.58104219-161.77912594 214.93531875-228.86550375 257.47348032-250.03213782a35.77499906 35.77499906 0 0 1 3.01582218 14.40685782V826.88896313c0 19.83228937-16.07732906 35.90961844-35.90961843 35.90961843h-342.78094313c-0.02116688-93.68606344-0.04487344-222.54684-0.04487344-340.95045187zM373.46902625-84.66569062999997a1070.63630438 1070.63630438 0 0 0-10.00504406-10.13543156H660.30232156c-81.99022781 82.13162156-132.24320438 187.10458125-155.24794969 271.53828563-26.4760725-113.13904688-73.62178781-199.87229437-131.58534562-261.40285407zM273.56589875 161.17291406000004C377.09021469 333.75040968999997 398.13238906 519.35131312 398.13238906 519.35131312l-0.15324656 343.448115H70.31202312c-19.83228937 0-35.90961844-16.07732906-35.90961843-35.90961843V-58.890656250000006c0-3.21648187 0.42925969-6.33221063 1.22173781-9.29638594 110.01739219 69.16155469 196.62787313 160.53706781 237.94175625 229.35995625z"  horiz-adv-x="1024" />

    
    <glyph glyph-name="gou1" unicode="&#58887;" d="M461.016 110.467c-12.3 0-24.6 4.697-33.98 14.09L229.43 322.138c-18.75 18.765-18.75 49.17 0 67.935 18.745 18.764 49.17 18.764 67.925 0l163.662-163.673 418.058 418.107c18.765 18.764 49.18 18.764 67.943 0 18.73-18.741 18.73-49.156 0-67.925l-452.06-452.037c-9.37-9.38-21.68-14.077-33.941-14.077zM512.003-128C229.688-128 0 101.683 0 383.996 0 666.312 229.688 896 512.003 896c100.708 0 198.194-29.224 281.875-84.511 16.855-11.134 21.485-33.82 10.367-50.674-11.133-16.846-33.82-21.5-50.674-10.366-71.699 47.372-155.239 72.41-241.568 72.41-241.998 0-438.862-196.864-438.862-438.862 0-241.992 196.866-438.858 438.862-438.858 241.993 0 438.858 196.866 438.858 438.858 0 15.274-0.776 30.651-2.339 45.714-2.08 20.097 12.53 38.061 32.618 40.131 20.069 2.085 38.061-12.529 40.131-32.613a519.016 519.016 0 0 0 2.73-53.232C1024 101.683 794.317-128 512.003-128z m0 0"  horiz-adv-x="1025" />

    
    <glyph glyph-name="logo-weibo" unicode="&#58634;" d="M511.9535 832.058813c-247.458725 0-448.062313-200.602588-448.062313-448.061313 0-247.453725 200.603588-448.057313 448.062313-448.057313 247.453725 0 448.052313 200.603588 448.052313 448.057313C960.005813 631.456225 759.407225 832.058813 511.9535 832.058813L511.9535 832.058813zM470.406378 160.67384600000003c-114.514335 0-231.571678 55.497163-231.571678 146.77843 0 47.72214 30.232089 102.906301 82.306241 154.983454 69.523204 69.506204 150.599441 101.167296 181.093531 70.660207 13.454039-13.437039 14.757043-36.716108 6.107018-64.506189-4.504013-13.997041 13.138038-6.244018 13.138038-6.278018 56.197165 23.528069 105.222308 24.916073 123.142361-0.688002 9.562028-13.64204 8.647025-32.776096-0.166-54.950161-4.078012-10.21503 1.256004-11.796035 9.026026-14.129041 31.665093-9.816029 66.907196-33.559098 66.907196-75.400221C720.390111 247.89510099999995 620.530818 160.67384600000003 470.406378 160.67384600000003L470.406378 160.67384600000003zM677.718986 450.913696c3.706011 11.441034 1.385004 24.485072-7.248021 34.0541-8.624025 9.552028-21.373063 13.176039-33.131097 10.693031L637.339867 495.682827c-9.809029-2.137006-19.472057 4.159012-21.575063 13.959041-2.111006 9.838029 4.154012 19.515057 13.985041 21.609063 24.05307 5.111015 50.106147-2.321007 67.748198-21.895064 17.682052-19.575057 22.413066-46.235135 14.853044-69.626204-3.086009-9.573028-13.344039-14.787043-22.904067-11.728034-9.560028 3.095009-14.788043 13.365039-11.706034 22.917067l-0.018 0L677.718986 450.913696zM783.742296 416.675596c-0.004-0.018-0.004-0.06-0.004-0.081-3.599011-11.095033-15.523045-17.16905-26.610078-13.57904-11.133033 3.595011-17.21505 15.489045-13.62504 26.610078l-0.004 0.009c11.027032 34.1401 4.035012 73.082214-21.715064 101.628298-25.772076 28.554084-63.770187 39.461116-98.88529 32.003094-11.420033-2.431007-22.651066 4.856014-25.088074 16.267048-2.444007 11.397033 4.838014 22.638066 16.258048 25.083073l0.021 0c49.359145 10.492031 102.829301-4.829014 139.085407-45.025132C789.439313 519.437897 799.213341 464.696736 783.742296 416.675596L783.742296 416.675596zM783.742296 416.675596M624.54883 325.86833c-5.924017 59.970176-84.807248 101.273297-176.195516 92.23827-91.371268-9.034026-160.659471-64.97919-154.723453-124.959366 5.936017-60.001176 84.814248-101.304297 176.195516-92.28627C561.213644 209.90098999999998 630.476847 265.850154 624.54883 325.86833L624.54883 325.86833zM528.526548 276.625185c-18.647055-42.179124-72.288212-64.669189-117.792345-49.991146-43.932129 14.176042-62.532183 57.556169-43.298127 96.632283 18.890055 38.315112 68.035199 59.984176 111.517327 48.671143C523.957535 360.30743099999995 546.920602 317.85530600000004 528.526548 276.625185L528.526548 276.625185zM528.526548 276.625185M435.544276 308.76027999999997c-14.147041 5.932017-32.439095-0.166-41.170121-13.860041-8.838026-13.74904-4.693014-30.126088 9.359027-36.525107 14.254042-6.509019 33.179097-0.329001 42.022123 13.77104 8.680025 14.241042 4.107012 30.511089-10.20603 36.614107L435.544276 308.76027999999997zM435.544276 308.76027999999997M470.419378 323.21932200000003c-5.428016 2.154006-12.219036-0.457001-15.404045-5.796017-3.090009-5.368016-1.384004-11.484034 4.057012-13.71904 5.534016-2.278007 12.599037 0.350001 15.796046 5.812017C477.9194 315.017298 475.937394 321.201316 470.419378 323.21932200000003L470.419378 323.21932200000003zM470.419378 323.21932200000003"  horiz-adv-x="1025" />

    
    <glyph glyph-name="jiaju" unicode="&#58923;" d="M1091.601545 494.863094c24.770032 0 44.723669-19.953637 44.723669-44.723669v-350.908785c0-24.770032-19.953637-44.723669-44.723669-44.723669-6.020494 0-11.868974 1.204099-17.373425 3.440282-15.825298 6.70855-33.026709 10.320847-50.22812 10.320847h-603.769528c-17.201411 0-34.402822-3.440282-50.22812-10.320847-5.504452-2.408198-11.352931-3.612296-17.373425-3.440282-24.770032 0-44.723669 19.953637-44.723669 44.723669v350.908785c0 24.770032 19.953637 44.723669 44.723669 44.723669s44.723669-19.953637 44.723668-44.723669V311.152024c0-43.003528 34.918864-77.750378 77.750378-77.750378h494.024526c43.003528 0 77.750378 34.918864 77.750378 77.750378v138.987401c0 24.770032 19.953637 44.723669 44.723668 44.723669m0 55.044516c-55.044515 0-99.768184-44.723669-99.768184-99.768185V311.152024c0-12.55703-10.148833-22.705863-22.705862-22.705862H475.102973c-12.55703 0-22.705863 10.148833-22.705862 22.705862v138.987401c0 55.044515-44.723669 99.768184-99.768184 99.768185s-99.768184-44.723669-99.768185-99.768185v-350.908785c0-33.370737 16.857383-64.677306 44.723669-83.082815 27.866286-18.40551 63.129179-21.673778 93.919705-8.77272 9.116748 3.78431 18.749538 5.84848 28.726356 5.84848h603.769528c9.804804 0 19.609609-2.064169 28.726356-5.84848 12.385016-5.160423 25.458088-7.912649 38.875189-7.912649 55.044515 0 99.768184 44.723669 99.768185 99.768184v350.908785c0 55.044515-44.551655 99.768184-99.768185 99.768185z m0 0M1055.478582 53.646901h-16.857383c-4.988409 0-9.976818-2.064169-13.589114-5.676466-3.612296-3.612296-5.676466-8.428691-5.676466-13.589115v-30.618511c0-10.492861 8.600706-19.093566 19.093566-19.093567h16.857383c10.492861 0 19.093566 8.600706 19.093566 19.093567v30.618511c0 4.988409-2.064169 9.976818-5.676465 13.589115-3.440282 3.612296-8.256677 5.676466-13.245087 5.676466z m-649.697295 0h-16.857383c-4.988409 0-9.976818-2.064169-13.589115-5.676466-3.612296-3.612296-5.676466-8.428691-5.676465-13.589115v-30.618511c0-10.492861 8.600706-19.093566 19.093566-19.093567h16.857383c10.492861 0 19.093566 8.600706 19.093566 19.093567v30.618511c0 4.988409-2.064169 9.976818-5.676466 13.589115-3.268268 3.612296-8.084663 5.676466-13.245086 5.676466z m0 0M1011.098942 726.910129c2.064169 0 3.956325-0.860071 5.504451-2.236183 1.376113-1.376113 2.236183-3.440282 2.236184-5.504452v-241.679825H443.796405c-31.134554 0-18.40551 25.286074-18.40551 56.420628V719.341508c0 4.300353 3.440282 7.740635 7.740635 7.740635h577.967412m0 54.872502h-577.967412c-34.574836 0-62.78515-28.0383-62.78515-62.785151v-164.617503c0-72.933983 40.767344-75.34218 75.170166-132.106837h546.316815c35.090879 20.641693 81.878717 56.248614 81.878717 125.742315v170.982025c0 34.74685-28.0383 62.78515-62.613136 62.785151z m0 0"  horiz-adv-x="1448" />

    
    <glyph glyph-name="mogujieicon" unicode="&#59053;" d="M923.477333 891.306667H99.584C46.165333 891.306667 2.816 847.957333 2.816 794.538667v-823.978667c0-53.418667 43.349333-96.768 96.768-96.768h823.893333c53.418667 0 96.768 43.349333 96.768 96.768V794.538667c0 53.418667-43.349333 96.768-96.768 96.768zM659.882667 124.672c-8.448-81.92-81.664-141.568-163.584-133.12-81.92 8.448-141.568 81.664-133.12 163.584s81.664 141.568 163.584 133.12 141.568-81.664 133.12-163.584z m108.458666 91.477333c-108.202667 0-120.917333 111.018667-257.194666 111.018667-134.997333 0-169.984-113.237333-271.189334-113.237333s-133.973333 80.469333-127.914666 175.872c11.093333 174.933333 155.136 365.909333 399.104 365.909333s401.152-213.077333 400.384-373.589333c-7.594667-98.133333-34.986667-165.973333-143.189334-165.973334z"  horiz-adv-x="1024" />

    
    <glyph glyph-name="down-copy" unicode="&#58635;" d="M305.31863992 275.30525007000006c5.81820745-5.81655864 15.24275545-5.81655864 21.07456552 1e-8l185.60679456 185.60638235 185.60638236-185.60638235c5.83304667-5.81655864 15.25800687-5.81655864 21.07538992-1e-8 5.81697083 5.81655864 5.81738305 15.25718247 0 21.07374111l-194.23332276 194.23291055c-0.50783078 0.73660197-1.08656003 1.43981571-1.74195854 2.09645081-2.94723226 2.94640785-6.83386903 4.39405535-10.70607878 4.34830113-3.87262196 0.04575425-7.76008313-1.39983226-10.70772758-4.34830113-0.65663511-0.65663511-1.23371555-1.36067323-1.74278294-2.09768741l-194.23167397-194.23126175c-5.81697083-5.81655864-5.81738305-15.25718247 0.00041222-21.07374113z"  horiz-adv-x="1024" />

    
    <glyph glyph-name="shanchu" unicode="&#59022;" d="M762.220089 714.786133H263.145244c-45.943467 0-83.182933-11.184356-83.182933-46.705777v-21.435734h665.429333v21.435734c0.011378 35.521422-37.228089 46.705778-83.171555 46.705777M687.138133 669.331911L670.913422 785.339733c-3.151644 22.664533-24.439467 41.176178-47.320178 41.176178H401.783467c-22.880711 0-44.157156-18.511644-47.354311-41.210311l-16.224712-116.0192c-3.163022-22.664533 12.970667-18.432 35.851378-18.432h277.253689c22.892089 0.022756 39.025778-4.221156 35.828622 18.477511z m-296.493511 23.529245l12.811378 91.682133h218.453333l12.811378-91.682133H390.644622zM776.0896 594.784711H249.287111c-30.492444 0-53.202489-24.860444-50.449067-55.227733l45.431467-499.484445c2.742044-30.378667 29.980444-55.227733 60.461511-55.227733h415.880534c30.492444 0 57.730844 24.860444 60.461511 55.227733l45.431466 499.484445c2.787556 30.378667-19.933867 55.227733-50.414933 55.227733zM401.783467 42.666667h-107.713423L258.161778 530.488889h143.610311V42.666667z m182.385777 0H440.490667V530.488889h143.678577V42.666667z m146.067912 0h-106.643912V530.488889h142.188089L730.237156 42.666667z"  horiz-adv-x="1024" />

    
    <glyph glyph-name="yiyaobaojian" unicode="&#58899;" d="M723.142067-127.04832699999997H300.361398A142.750929 142.750929 0 0 0 159.513814 18.319703000000004v475.836431a36.401487 36.401487 0 0 0 22.126394 33.784386L326.056565 678.542751a107.063197 107.063197 0 0 0-95.167286 107.776952A107.776952 107.776952 0 0 0 335.573294 896h352.356877a107.776952 107.776952 0 0 0 105.635688-109.680297 107.063197 107.063197 0 0 0-92.312268-106.825279l157.026022-164.163569c0-1.427509 0-3.092937 1.42751-4.520446a36.639405 36.639405 0 0 0 4.520446-16.892193v-2.379183a21.174721 21.174721 0 0 0 0-6.899628v-466.319702A142.750929 142.750929 0 0 0 723.142067-127.04832699999997z m0 914.319702a35.925651 35.925651 0 0 1-35.211896 36.639406H335.573294a35.925651 35.925651 0 0 1-35.211896-37.591078A35.925651 35.925651 0 0 1 335.573294 749.680297h352.356877a35.925651 35.925651 0 0 1 35.211896 36.639406z m71.375465-365.680297v35.449814H441.4469v-365.680297h352.118959zM406.235004 18.319703000000004a35.925651 35.925651 0 0 0-35.211896 36.639405V493.680297a35.925651 35.925651 0 0 0 35.211896 36.639406h338.795539l-139.895911 146.319702h-182.245353L230.889279 474.884758v-456.565055a71.375465 71.375465 0 0 1 71.375464-73.040893h420.877324a71.375465 71.375465 0 0 1 71.375465 73.040893z m140.847583 292.639405h35.211896v36.401487a35.211896 35.211896 0 1 0 71.375465 0v-36.639405h35.211896a36.639405 36.639405 0 0 0 0-73.040893h-36.163569v-36.639405a35.211896 35.211896 0 1 0-71.375465 0v36.639405h-34.260223a36.639405 36.639405 0 0 0 0 73.040893z m0 0"  horiz-adv-x="1024" />

    
    <glyph glyph-name="quanyou" unicode="&#58636;" d="M613.592 406.078l-504.443 489.946-77.752-77.301 427.068-415.673-428.657-456.818 83.481-74.232 500.303 534.078zM410.407-53.76800000000003l83.48-74.232 500.305 534.079-504.443 489.944-77.752-77.301 427.068-415.673-428.658-456.818z"  horiz-adv-x="1025" />

    
    <glyph glyph-name="jingdong1" unicode="&#58898;" d="M510.976-111.61599999999999C236.9536-111.61599999999999 14.9504 110.3872 14.9504 384.2048 14.9504 658.2272 236.9536 880.2304 510.976 880.2304c273.8176 0 496.0256-222.0032 496.0256-496.0256C1006.7968 110.3872 784.7936-111.61599999999999 510.976-111.61599999999999z m104.6528 264.3968c124.3136 0 225.0752 110.7968 225.0752 247.6032 0 136.8064-100.7616 247.6032-225.0752 247.6032h-150.1184v-495.2064h150.1184z m-405.2992 0c99.5328 0 180.224 78.2336 180.224 174.6944V647.9872h-60.0064v-320.3072c0-64.3072-53.6576-116.5312-120.0128-116.5312H180.224v-58.1632h30.1056v-0.2048z m0 0M615.6288 589.8240000000001h-90.112v-378.6752h90.112c91.136 0 165.0688 84.7872 165.0688 189.2352s-73.728 189.44-165.0688 189.44z m0 0"  horiz-adv-x="1024" />

    
    <glyph glyph-name="wangyi" unicode="&#58900;" d="M4.447334 387.299966a507.275726 507.275726 0 1 1 1014.552453 0 507.275726 507.275726 0 1 1-1014.552453 0zM340.356651 194.812189c-30.160384-9.222977-20.10659-29.422546-20.10659-29.422546 20.10559-79.59554 261.477643 109.388005 271.530439 139.270451s-19.73767 19.92263-19.737671 19.92263c-141.115046-119.34882-231.594199-129.771534-231.686178-129.771534zM511.723061-128a511.610775 511.610775 0 1 0 511.611775 511.610775 511.518796 511.518796 0 0 0-511.611775-510.964917z m-21.766226 549.795399c40.951017 2.213514 81.717075 2.213514 81.717075 2.213515 90.480153-9.961815 90.480153 59.67391 90.480153 59.67391V533.394919c0 39.84426-30.160384 89.557355-120.639537 89.557356s-110.678722-9.960815-110.678722-9.960816c-40.213179-9.961815-30.159384-29.791465-30.159385-29.791465 10.144775-19.92163 40.305159-10.237754 40.305159-10.237754a283.705768 283.705768 0 0 0 120.639537 9.960815c60.319769 0 60.319769-49.805075 60.319769-49.805075v-49.713095c0-29.790465-30.160384-29.790465-30.160384-29.790465H420.783009a29.329566 29.329566 0 0 0-30.160384 29.790465v69.911664a20.10659 20.10659 0 0 1-40.213179 0v-89.464375c10.053795-49.806075 70.373563-49.806075 70.373563-49.806075a193.687514 193.687514 0 0 0 25.732355 4.243069 163.527129 163.527129 0 0 0-126.265303-53.955164s-30.160384 0-30.160384-19.83065c0 0 0-19.92163 30.160384-19.92163s128.663777 19.552711 169.706774 97.212676zM352.439001 199.238219l-4.15109-1.383697c1.659636 0.460899 3.136312 1.014777 4.15109 1.383697zM541.513526 414.047099a19.645691 19.645691 0 0 1-20.106589-19.92163 24.164699 24.164699 0 0 1 2.305494-9.222977l-2.305494-0.460899C390.622625 264.815834 320.250061 274.777649 320.250061 274.777649a19.552711 19.552711 0 0 1-20.106589-19.830651c10.052795-79.59554 231.317259 79.59654 241.371054 109.388006a32.742818 32.742818 0 0 1 1.844595 9.867835c10.790633 0 72.125179-3.504231 108.741147-39.6593 39.84426-39.84426-10.052795-129.309635-80.057439-139.73135 0 0-30.159384 0-40.213179 19.92163 0 0-20.10559 9.961815-20.105589-9.960815 0 0 0-59.67391 50.265973-59.67391s140.469187 40.490118 150.521983 149.600185c0 0 0 119.34782-170.997491 119.34782z m10.052795 89.557355s30.160384 0 30.160384 19.83065c0 0 0 19.92163-30.160384 19.92163H450.943393s-30.159384 0-30.159384-19.92163c0 0 0-19.83065 30.159384-19.83065z"  horiz-adv-x="1024" />

    
    </font>
</defs>
</svg>
